<svg width="393" height="362" viewBox="0 0 393 362" fill="none" xmlns="http://www.w3.org/2000/svg">
<g filter="url(#filter0_d_425_206)">
<rect x="25" y="15" width="343" height="312" rx="20" fill="white"/>
</g>
<path d="M207 56C207 51.5817 210.582 48 215 48H243C247.418 48 251 51.5817 251 56V258H207V56Z" fill="url(#paint0_linear_425_206)"/>
<path d="M368 136.663C360.97 136.695 353.241 136.412 343.5 138C321.5 141.586 308 188.5 285.5 188.5C259.134 188.5 249 116.5 229.5 116.5C210 116.5 213.5 158 174 158C155.189 158 154.5 205.616 118.5 212C113.158 212.947 109 218.843 103 218.843" stroke="#7012CE" stroke-width="4"/>
<path d="M232.7 291.438C232.376 288.75 230.342 287.205 227.649 287.205C224.575 287.205 222.229 289.375 222.229 293.182C222.229 296.977 224.536 299.159 227.649 299.159C230.632 299.159 232.433 297.176 232.7 295.034L230.212 295.023C229.979 296.267 229.001 296.983 227.689 296.983C225.922 296.983 224.723 295.67 224.723 293.182C224.723 290.761 225.905 289.381 227.706 289.381C229.053 289.381 230.024 290.159 230.212 291.438H232.7ZM234.419 302.273H236.839V297.602H236.913C237.249 298.33 237.982 299.142 239.391 299.142C241.379 299.142 242.93 297.568 242.93 294.648C242.93 291.648 241.311 290.159 239.396 290.159C237.936 290.159 237.237 291.028 236.913 291.739H236.805V290.273H234.419V302.273ZM236.788 294.636C236.788 293.08 237.447 292.085 238.624 292.085C239.822 292.085 240.459 293.125 240.459 294.636C240.459 296.159 239.811 297.216 238.624 297.216C237.459 297.216 236.788 296.193 236.788 294.636Z" fill="#070417"/>
<path opacity="0.4" d="M168.433 299H172.637C175.387 299 176.523 297.659 176.523 295.909C176.523 294.068 175.251 293.068 174.183 293V292.886C175.183 292.614 176.069 291.955 176.069 290.455C176.069 288.75 174.933 287.364 172.501 287.364H168.433V299ZM169.842 297.75V293.705H172.705C174.228 293.705 175.183 294.727 175.183 295.909C175.183 296.932 174.478 297.75 172.637 297.75H169.842ZM169.842 292.477V288.614H172.501C174.046 288.614 174.728 289.432 174.728 290.455C174.728 291.682 173.728 292.477 172.455 292.477H169.842ZM178.157 291.523H181.043V299H182.384V291.523H185.248V290.273H178.157V291.523Z" fill="#070417"/>
<path opacity="0.4" d="M121.184 287.364H112.502V299H113.911V288.614H119.775V299H121.184V287.364ZM125.185 290.273H123.844V299H125.185V295.273H129.367V299H130.708V290.273H129.367V294.023H125.185V290.273Z" fill="#070417"/>
<path opacity="0.4" d="M280.531 287.364V291.25C280.531 293.818 281.985 294.773 284.394 294.773C285.803 294.773 286.673 294.591 287.621 294.307V299H289.031V287.364H287.621V293.028C286.627 293.318 285.57 293.5 284.394 293.5C282.894 293.5 281.94 292.977 281.94 291.25V287.364H280.531ZM291.173 291.523H294.059V299H295.4V291.523H298.263V290.273H291.173V291.523Z" fill="#070417"/>
<path opacity="0.4" d="M344.567 287.364H335.885V299H337.294V288.614H343.158V299H344.567V287.364ZM346.727 291.523H349.614V299H350.955V291.523H353.818V290.273H346.727V291.523Z" fill="#070417"/>
<path opacity="0.4" d="M45.375 263.139C47.6222 263.139 48.9148 261.235 48.9148 257.909C48.9148 254.608 47.6023 252.679 45.375 252.679C43.1477 252.679 41.8352 254.608 41.8352 257.909C41.8352 261.235 43.1278 263.139 45.375 263.139ZM45.375 262.045C43.8935 262.045 43.0284 260.559 43.0284 257.909C43.0284 255.264 43.9034 253.753 45.375 253.753C46.8466 253.753 47.7216 255.264 47.7216 257.909C47.7216 260.559 46.8565 262.045 45.375 262.045ZM51.9972 258.406C51.9972 257.074 52.8473 256.318 54.0057 256.318C55.1094 256.318 55.7756 257.014 55.7756 258.227V263H56.9489V258.148C56.9489 256.184 55.9048 255.264 54.3438 255.264C53.1406 255.264 52.4545 255.766 52.0966 256.557H51.9972V252.818H50.8239V263H51.9972V258.406ZM62.3965 263.139C64.6436 263.139 65.9363 261.235 65.9363 257.909C65.9363 254.608 64.6238 252.679 62.3965 252.679C60.1692 252.679 58.8567 254.608 58.8567 257.909C58.8567 261.235 60.1493 263.139 62.3965 263.139ZM62.3965 262.045C60.915 262.045 60.0499 260.559 60.0499 257.909C60.0499 255.264 60.9249 253.753 62.3965 253.753C63.8681 253.753 64.7431 255.264 64.7431 257.909C64.7431 260.559 63.878 262.045 62.3965 262.045ZM67.8453 263H69.0186V258.227C69.0186 257.109 69.834 256.318 70.7488 256.318C71.6387 256.318 72.2601 256.9 72.2601 257.77V263H73.4533V258.028C73.4533 257.044 74.0698 256.318 75.1436 256.318C75.9789 256.318 76.6948 256.761 76.6948 257.889V263H77.8681V257.889C77.8681 256.094 76.9036 255.264 75.5414 255.264C74.4476 255.264 73.6472 255.766 73.2544 256.557H73.1749C72.7971 255.741 72.1309 255.264 71.1266 255.264C70.1323 255.264 69.3965 255.741 69.0783 256.557H68.9789V255.364H67.8453V263Z" fill="#070417"/>
<line opacity="0.05" x1="103" y1="257.5" x2="352" y2="257.5" stroke="black" stroke-dasharray="8 8"/>
<path opacity="0.4" d="M45.375 221.139C47.6222 221.139 48.9148 219.235 48.9148 215.909C48.9148 212.608 47.6023 210.679 45.375 210.679C43.1477 210.679 41.8352 212.608 41.8352 215.909C41.8352 219.235 43.1278 221.139 45.375 221.139ZM45.375 220.045C43.8935 220.045 43.0284 218.559 43.0284 215.909C43.0284 213.264 43.9034 211.753 45.375 211.753C46.8466 211.753 47.7216 213.264 47.7216 215.909C47.7216 218.559 46.8565 220.045 45.375 220.045ZM51.9972 216.406C51.9972 215.074 52.8473 214.318 54.0057 214.318C55.1094 214.318 55.7756 215.014 55.7756 216.227V221H56.9489V216.148C56.9489 214.184 55.9048 213.264 54.3438 213.264C53.1406 213.264 52.4545 213.766 52.0966 214.557H51.9972V210.818H50.8239V221H51.9972V216.406ZM62.5158 221.139C64.4895 221.139 65.9561 219.901 65.9561 218.236C65.9561 216.943 65.1905 216.004 63.9078 215.79V215.71C64.937 215.397 65.5783 214.552 65.5783 213.403C65.5783 211.962 64.4398 210.679 62.5556 210.679C60.7956 210.679 59.334 211.763 59.2743 213.364H60.4675C60.5123 212.349 61.4767 211.753 62.5357 211.753C63.6593 211.753 64.3851 212.434 64.3851 213.463C64.3851 214.537 63.5449 215.233 62.3368 215.233H61.5215V216.327H62.3368C63.883 216.327 64.7431 217.112 64.7431 218.236C64.7431 219.315 63.8034 220.045 62.4959 220.045C61.3176 220.045 60.383 219.439 60.3084 218.455H59.0556C59.1301 220.055 60.5421 221.139 62.5158 221.139ZM71.3105 221.139C73.5577 221.139 74.8503 219.235 74.8503 215.909C74.8503 212.608 73.5378 210.679 71.3105 210.679C69.0833 210.679 67.7708 212.608 67.7708 215.909C67.7708 219.235 69.0634 221.139 71.3105 221.139ZM71.3105 220.045C69.829 220.045 68.964 218.559 68.964 215.909C68.964 213.264 69.839 211.753 71.3105 211.753C72.7821 211.753 73.6571 213.264 73.6571 215.909C73.6571 218.559 72.7921 220.045 71.3105 220.045ZM76.7594 221H77.9327V216.227C77.9327 215.109 78.748 214.318 79.6628 214.318C80.5527 214.318 81.1742 214.9 81.1742 215.77V221H82.3674V216.028C82.3674 215.044 82.9838 214.318 84.0577 214.318C84.8929 214.318 85.6088 214.761 85.6088 215.889V221H86.7821V215.889C86.7821 214.094 85.8176 213.264 84.4554 213.264C83.3617 213.264 82.5613 213.766 82.1685 214.557H82.089C81.7111 213.741 81.0449 213.264 80.0407 213.264C79.0463 213.264 78.3105 213.741 77.9924 214.557H77.8929V213.364H76.7594V221Z" fill="#070417"/>
<line opacity="0.05" x1="103" y1="215.5" x2="352" y2="215.5" stroke="black" stroke-dasharray="8 8"/>
<path opacity="0.4" d="M45.6335 168.818H44.4006L41.8551 170.509V171.761L44.3409 170.111H44.4006V179H45.6335V168.818ZM49.755 174.406C49.755 173.074 50.6051 172.318 51.7635 172.318C52.8672 172.318 53.5334 173.014 53.5334 174.227V179H54.7067V174.148C54.7067 172.184 53.6626 171.264 52.1016 171.264C50.8984 171.264 50.2124 171.766 49.8544 172.557H49.755V168.818H48.5817V179H49.755V174.406ZM60.1543 179.139C62.4015 179.139 63.6941 177.235 63.6941 173.909C63.6941 170.608 62.3816 168.679 60.1543 168.679C57.927 168.679 56.6145 170.608 56.6145 173.909C56.6145 177.235 57.9071 179.139 60.1543 179.139ZM60.1543 178.045C58.6728 178.045 57.8077 176.559 57.8077 173.909C57.8077 171.264 58.6827 169.753 60.1543 169.753C61.6259 169.753 62.5009 171.264 62.5009 173.909C62.5009 176.559 61.6358 178.045 60.1543 178.045ZM65.6032 179H66.7765V174.227C66.7765 173.109 67.5918 172.318 68.5066 172.318C69.3965 172.318 70.0179 172.9 70.0179 173.77V179H71.2111V174.028C71.2111 173.044 71.8276 172.318 72.9015 172.318C73.7367 172.318 74.4526 172.761 74.4526 173.889V179H75.6259V173.889C75.6259 172.094 74.6614 171.264 73.2992 171.264C72.2054 171.264 71.405 171.766 71.0123 172.557H70.9327C70.5549 171.741 69.8887 171.264 68.8844 171.264C67.8901 171.264 67.1543 171.741 66.8361 172.557H66.7367V171.364H65.6032V179Z" fill="#070417"/>
<line opacity="0.05" x1="103" y1="173.5" x2="352" y2="173.5" stroke="black" stroke-dasharray="8 8"/>
<path opacity="0.4" d="M45.6335 126.818H44.4006L41.8551 128.509V129.761L44.3409 128.111H44.4006V137H45.6335V126.818ZM49.755 132.406C49.755 131.074 50.6051 130.318 51.7635 130.318C52.8672 130.318 53.5334 131.014 53.5334 132.227V137H54.7067V132.148C54.7067 130.184 53.6626 129.264 52.1016 129.264C50.8984 129.264 50.2124 129.766 49.8544 130.557H49.755V126.818H48.5817V137H49.755V132.406ZM60.2736 137.139C62.2473 137.139 63.714 135.901 63.714 134.236C63.714 132.943 62.9483 132.004 61.6657 131.79V131.71C62.6948 131.397 63.3361 130.552 63.3361 129.403C63.3361 127.962 62.1976 126.679 60.3134 126.679C58.5534 126.679 57.0918 127.763 57.0321 129.364H58.2253C58.2701 128.349 59.2346 127.753 60.2935 127.753C61.4171 127.753 62.1429 128.434 62.1429 129.463C62.1429 130.537 61.3027 131.233 60.0946 131.233H59.2793V132.327H60.0946C61.6408 132.327 62.5009 133.112 62.5009 134.236C62.5009 135.315 61.5613 136.045 60.2537 136.045C59.0755 136.045 58.1408 135.439 58.0662 134.455H56.8134C56.888 136.055 58.2999 137.139 60.2736 137.139ZM69.0684 137.139C71.3155 137.139 72.6081 135.235 72.6081 131.909C72.6081 128.608 71.2956 126.679 69.0684 126.679C66.8411 126.679 65.5286 128.608 65.5286 131.909C65.5286 135.235 66.8212 137.139 69.0684 137.139ZM69.0684 136.045C67.5868 136.045 66.7218 134.559 66.7218 131.909C66.7218 129.264 67.5968 127.753 69.0684 127.753C70.54 127.753 71.415 129.264 71.415 131.909C71.415 134.559 70.5499 136.045 69.0684 136.045ZM74.5172 137H75.6905V132.227C75.6905 131.109 76.5059 130.318 77.4206 130.318C78.3105 130.318 78.932 130.9 78.932 131.77V137H80.1252V132.028C80.1252 131.044 80.7417 130.318 81.8155 130.318C82.6507 130.318 83.3667 130.761 83.3667 131.889V137H84.54V131.889C84.54 130.094 83.5755 129.264 82.2132 129.264C81.1195 129.264 80.3191 129.766 79.9263 130.557H79.8468C79.4689 129.741 78.8027 129.264 77.7985 129.264C76.8042 129.264 76.0684 129.741 75.7502 130.557H75.6507V129.364H74.5172V137Z" fill="#070417"/>
<line opacity="0.05" x1="103" y1="131.5" x2="352" y2="131.5" stroke="black" stroke-dasharray="8 8"/>
<path opacity="0.4" d="M42.054 95H48.4773V93.9062H43.7443V93.8267L46.0312 91.3807C47.7812 89.5064 48.2983 88.6314 48.2983 87.5028C48.2983 85.9318 47.0256 84.679 45.2358 84.679C43.451 84.679 42.0938 85.892 42.0938 87.6818H43.267C43.267 86.5234 44.0178 85.7528 45.196 85.7528C46.2997 85.7528 47.1449 86.429 47.1449 87.5028C47.1449 88.4425 46.593 89.1385 45.4148 90.4261L42.054 94.1051V95ZM51.7237 90.4062C51.7237 89.0739 52.5739 88.3182 53.7322 88.3182C54.8359 88.3182 55.5021 89.0142 55.5021 90.2273V95H56.6754V90.1477C56.6754 88.1839 55.6314 87.2642 54.0703 87.2642C52.8672 87.2642 52.1811 87.7663 51.8232 88.5568H51.7237V84.8182H50.5504V95H51.7237V90.4062ZM62.123 95.1392C64.3702 95.1392 65.6628 93.2351 65.6628 89.9091C65.6628 86.608 64.3503 84.679 62.123 84.679C59.8958 84.679 58.5833 86.608 58.5833 89.9091C58.5833 93.2351 59.8759 95.1392 62.123 95.1392ZM62.123 94.0455C60.6415 94.0455 59.7765 92.5589 59.7765 89.9091C59.7765 87.2642 60.6515 85.7528 62.123 85.7528C63.5946 85.7528 64.4696 87.2642 64.4696 89.9091C64.4696 92.5589 63.6046 94.0455 62.123 94.0455ZM67.5719 95H68.7452V90.2273C68.7452 89.1087 69.5605 88.3182 70.4753 88.3182C71.3652 88.3182 71.9867 88.8999 71.9867 89.7699V95H73.1799V90.0284C73.1799 89.044 73.7963 88.3182 74.8702 88.3182C75.7054 88.3182 76.4213 88.7607 76.4213 89.8892V95H77.5946V89.8892C77.5946 88.0945 76.6301 87.2642 75.2679 87.2642C74.1742 87.2642 73.3738 87.7663 72.981 88.5568H72.9015C72.5236 87.7415 71.8574 87.2642 70.8532 87.2642C69.8588 87.2642 69.123 87.7415 68.8049 88.5568H68.7054V87.3636H67.5719V95Z" fill="#070417"/>
<line opacity="0.05" x1="103" y1="89.5" x2="352" y2="89.5" stroke="black" stroke-dasharray="8 8"/>
<path opacity="0.4" d="M42.054 53H48.4773V51.9062H43.7443V51.8267L46.0312 49.3807C47.7812 47.5064 48.2983 46.6314 48.2983 45.5028C48.2983 43.9318 47.0256 42.679 45.2358 42.679C43.451 42.679 42.0938 43.892 42.0938 45.6818H43.267C43.267 44.5234 44.0178 43.7528 45.196 43.7528C46.2997 43.7528 47.1449 44.429 47.1449 45.5028C47.1449 46.4425 46.593 47.1385 45.4148 48.4261L42.054 52.1051V53ZM51.7237 48.4062C51.7237 47.0739 52.5739 46.3182 53.7322 46.3182C54.8359 46.3182 55.5021 47.0142 55.5021 48.2273V53H56.6754V48.1477C56.6754 46.1839 55.6314 45.2642 54.0703 45.2642C52.8672 45.2642 52.1811 45.7663 51.8232 46.5568H51.7237V42.8182H50.5504V53H51.7237V48.4062ZM62.2424 53.1392C64.2161 53.1392 65.6827 51.9013 65.6827 50.2358C65.6827 48.9432 64.9171 48.0036 63.6344 47.7898V47.7102C64.6635 47.397 65.3049 46.5518 65.3049 45.4034C65.3049 43.9616 64.1664 42.679 62.2821 42.679C60.5222 42.679 59.0605 43.7628 59.0009 45.3636H60.1941C60.2388 44.3494 61.2033 43.7528 62.2623 43.7528C63.3858 43.7528 64.1117 44.4339 64.1117 45.4631C64.1117 46.5369 63.2715 47.233 62.0634 47.233H61.248V48.3267H62.0634C63.6096 48.3267 64.4696 49.1122 64.4696 50.2358C64.4696 51.3146 63.53 52.0455 62.2225 52.0455C61.0442 52.0455 60.1096 51.4389 60.035 50.4545H58.7821C58.8567 52.0554 60.2686 53.1392 62.2424 53.1392ZM71.0371 53.1392C73.2843 53.1392 74.5769 51.2351 74.5769 47.9091C74.5769 44.608 73.2644 42.679 71.0371 42.679C68.8098 42.679 67.4973 44.608 67.4973 47.9091C67.4973 51.2351 68.79 53.1392 71.0371 53.1392ZM71.0371 52.0455C69.5556 52.0455 68.6905 50.5589 68.6905 47.9091C68.6905 45.2642 69.5655 43.7528 71.0371 43.7528C72.5087 43.7528 73.3837 45.2642 73.3837 47.9091C73.3837 50.5589 72.5186 52.0455 71.0371 52.0455ZM76.486 53H77.6593V48.2273C77.6593 47.1087 78.4746 46.3182 79.3894 46.3182C80.2793 46.3182 80.9007 46.8999 80.9007 47.7699V53H82.0939V48.0284C82.0939 47.044 82.7104 46.3182 83.7843 46.3182C84.6195 46.3182 85.3354 46.7607 85.3354 47.8892V53H86.5087V47.8892C86.5087 46.0945 85.5442 45.2642 84.182 45.2642C83.0882 45.2642 82.2878 45.7663 81.8951 46.5568H81.8155C81.4377 45.7415 80.7715 45.2642 79.7672 45.2642C78.7729 45.2642 78.0371 45.7415 77.7189 46.5568H77.6195V45.3636H76.486V53Z" fill="#070417"/>
<line opacity="0.05" x1="103" y1="47.5" x2="352" y2="47.5" stroke="black" stroke-dasharray="8 8"/>
<line x1="229.5" y1="59" x2="229.5" y2="266" stroke="white" stroke-dasharray="8 8"/>
<g filter="url(#filter1_b_425_206)">
<circle cx="229" cy="117" r="12" fill="#7012CE"/>
</g>
<circle cx="229" cy="117" r="5" fill="white"/>
<defs>
<filter id="filter0_d_425_206" x="0" y="0" width="393" height="362" filterUnits="userSpaceOnUse" color-interpolation-filters="sRGB">
<feFlood flood-opacity="0" result="BackgroundImageFix"/>
<feColorMatrix in="SourceAlpha" type="matrix" values="0 0 0 0 0 0 0 0 0 0 0 0 0 0 0 0 0 0 127 0" result="hardAlpha"/>
<feMorphology radius="10" operator="erode" in="SourceAlpha" result="effect1_dropShadow_425_206"/>
<feOffset dy="10"/>
<feGaussianBlur stdDeviation="17.5"/>
<feComposite in2="hardAlpha" operator="out"/>
<feColorMatrix type="matrix" values="0 0 0 0 0 0 0 0 0 0 0 0 0 0 0 0 0 0 0.1 0"/>
<feBlend mode="normal" in2="BackgroundImageFix" result="effect1_dropShadow_425_206"/>
<feBlend mode="normal" in="SourceGraphic" in2="effect1_dropShadow_425_206" result="shape"/>
</filter>
<filter id="filter1_b_425_206" x="193" y="81" width="72" height="72" filterUnits="userSpaceOnUse" color-interpolation-filters="sRGB">
<feFlood flood-opacity="0" result="BackgroundImageFix"/>
<feGaussianBlur in="BackgroundImage" stdDeviation="12"/>
<feComposite in2="SourceAlpha" operator="in" result="effect1_backgroundBlur_425_206"/>
<feBlend mode="normal" in="SourceGraphic" in2="effect1_backgroundBlur_425_206" result="shape"/>
</filter>
<linearGradient id="paint0_linear_425_206" x1="229" y1="48" x2="229" y2="258" gradientUnits="userSpaceOnUse">
<stop stop-color="#E9E9FF" stop-opacity="0.25"/>
<stop offset="1" stop-color="#E9E9FF"/>
</linearGradient>
</defs>
</svg>
