<svg width="30" height="30" viewBox="0 0 30 30" fill="none" xmlns="http://www.w3.org/2000/svg">
<path d="M15 0.000976562C6.7153 0.000976562 0 6.7172 0 15.001C0 23.2847 6.7153 30.0009 15 30.0009C23.2847 30.0009 30 23.2846 30 15.0009C30 6.71709 23.2846 0.000976562 15 0.000976562ZM24.8427 7.26093C26.4551 9.30847 27.4424 11.8659 27.5202 14.6493C24.1546 14.0596 21.2521 14.0418 18.7442 14.4393C18.4264 13.7099 18.0993 13.0012 17.7637 12.315C20.4534 11.2088 22.8656 9.59527 24.8427 7.26093ZM23.1167 5.46847C21.3505 7.6125 19.1333 9.0881 16.6246 10.0922C15.0186 7.11666 13.3668 4.63691 12.0469 2.82663C12.9947 2.59503 13.9818 2.47135 14.9991 2.47135C18.0956 2.47032 20.9286 3.60186 23.1167 5.46847ZM9.61407 3.69001C10.89 5.3934 12.5878 7.86089 14.2481 10.8862C10.7288 11.8528 6.79222 12.1134 2.80784 12.1247C3.68718 8.39721 6.2315 5.3072 9.61407 3.69001ZM2.4712 14.9998L2.4815 14.5948H2.54895C7.01332 14.5948 11.4458 14.3024 15.4198 13.1314C15.7161 13.7342 16.0077 14.3529 16.2927 14.9895C11.0643 16.5224 7.80461 19.9629 5.57058 23.2367C3.64311 21.0346 2.4712 18.1518 2.4712 14.9998ZM7.39681 24.9487C9.51181 21.7631 12.4593 18.6112 17.2556 17.2874C18.3759 20.1581 19.2899 23.2911 19.7737 26.5817C18.3018 27.193 16.6903 27.5305 15.0009 27.5305C12.1424 27.5305 9.50625 26.5677 7.39681 24.9487ZM22.0781 25.3331C21.5653 22.3265 20.7253 19.4587 19.7137 16.8C21.9056 16.5216 24.4255 16.5891 27.3467 17.1263C26.7627 20.5217 24.8109 23.4553 22.0781 25.3331Z" fill="#EA4C89"/>
</svg>
