<svg width="745" height="191" viewBox="0 0 745 191" fill="none" xmlns="http://www.w3.org/2000/svg">
<g filter="url(#filter0_d_340_199)">
<rect x="25" y="15" width="168" height="141" rx="20" fill="white"/>
<path d="M59.8 57V42.72H71.1V57H68.08V45.24H62.82V57H59.8ZM80.1423 45.88C81.369 45.88 82.3623 46.36 83.1223 47.32C83.8823 48.2667 84.2623 49.6667 84.2623 51.52C84.2623 53.3733 83.869 54.7867 83.0823 55.76C82.2957 56.72 81.289 57.2 80.0623 57.2C79.2757 57.2 78.649 57.06 78.1823 56.78C77.7157 56.4867 77.3357 56.16 77.0423 55.8H76.8823C76.989 56.36 77.0423 56.8933 77.0423 57.4V61.8H74.0623V46.08H76.4823L76.9023 47.5H77.0423C77.3357 47.06 77.729 46.68 78.2223 46.36C78.7157 46.04 79.3557 45.88 80.1423 45.88ZM79.1823 48.26C78.409 48.26 77.8623 48.5 77.5423 48.98C77.2357 49.46 77.069 50.1933 77.0423 51.18V51.5C77.0423 52.5533 77.1957 53.3667 77.5023 53.94C77.8223 54.5 78.3957 54.78 79.2223 54.78C79.9023 54.78 80.4023 54.5 80.7223 53.94C81.0557 53.3667 81.2223 52.5467 81.2223 51.48C81.2223 49.3333 80.5423 48.26 79.1823 48.26ZM96.2386 51.52C96.2386 53.3333 95.7586 54.7333 94.7986 55.72C93.8519 56.7067 92.5586 57.2 90.9186 57.2C89.9053 57.2 88.9986 56.98 88.1986 56.54C87.4119 56.1 86.7919 55.46 86.3386 54.62C85.8853 53.7667 85.6586 52.7333 85.6586 51.52C85.6586 49.7067 86.1319 48.3133 87.0786 47.34C88.0253 46.3667 89.3253 45.88 90.9786 45.88C92.0053 45.88 92.9119 46.1 93.6986 46.54C94.4853 46.98 95.1053 47.62 95.5586 48.46C96.0119 49.2867 96.2386 50.3067 96.2386 51.52ZM88.6986 51.52C88.6986 52.6 88.8719 53.42 89.2186 53.98C89.5786 54.5267 90.1586 54.8 90.9586 54.8C91.7453 54.8 92.3119 54.5267 92.6586 53.98C93.0186 53.42 93.1986 52.6 93.1986 51.52C93.1986 50.44 93.0186 49.6333 92.6586 49.1C92.3119 48.5533 91.7386 48.28 90.9386 48.28C90.1519 48.28 89.5786 48.5533 89.2186 49.1C88.8719 49.6333 88.6986 50.44 88.6986 51.52ZM108.761 41.38C108.695 42.0733 108.501 42.6867 108.181 43.22C107.861 43.74 107.361 44.1467 106.681 44.44C106.001 44.7333 105.088 44.88 103.941 44.88C102.768 44.88 101.848 44.74 101.181 44.46C100.528 44.1667 100.061 43.76 99.7814 43.24C99.5014 42.72 99.3347 42.1 99.2814 41.38H101.941C102.008 42.1133 102.195 42.6 102.501 42.84C102.808 43.08 103.308 43.2 104.001 43.2C104.575 43.2 105.041 43.0733 105.401 42.82C105.775 42.5533 105.995 42.0733 106.061 41.38H108.761ZM101.181 50.4C101.181 50.6267 101.168 50.9067 101.141 51.24C101.128 51.5733 101.108 51.9133 101.081 52.26C101.068 52.6067 101.048 52.9133 101.021 53.18C100.995 53.4467 100.975 53.6333 100.961 53.74L106.001 46.08H109.581V57H106.701V52.64C106.701 52.28 106.715 51.8867 106.741 51.46C106.768 51.02 106.795 50.6133 106.821 50.24C106.861 49.8533 106.888 49.56 106.901 49.36L101.881 57H98.3014V46.08H101.181V50.4ZM122.116 46.08V54.82H123.716V60.92H121.036V57H113.696V60.92H111.016V54.82H111.936C112.416 54.0867 112.823 53.2533 113.156 52.32C113.489 51.3733 113.756 50.3667 113.956 49.3C114.156 48.2333 114.303 47.16 114.396 46.08H122.116ZM116.896 48.32C116.736 49.5333 116.516 50.6867 116.236 51.78C115.956 52.86 115.563 53.8733 115.056 54.82H119.136V48.32H116.896ZM129.677 45.88C131.184 45.88 132.377 46.3133 133.257 47.18C134.137 48.0333 134.577 49.2533 134.577 50.84V52.28H127.537C127.564 53.12 127.811 53.78 128.277 54.26C128.757 54.74 129.417 54.98 130.257 54.98C130.964 54.98 131.604 54.9133 132.177 54.78C132.751 54.6333 133.344 54.4133 133.957 54.12V56.42C133.424 56.6867 132.857 56.88 132.257 57C131.671 57.1333 130.957 57.2 130.117 57.2C129.024 57.2 128.057 57 127.217 56.6C126.377 56.1867 125.717 55.5667 125.237 54.74C124.757 53.9133 124.517 52.8733 124.517 51.62C124.517 50.34 124.731 49.28 125.157 48.44C125.597 47.5867 126.204 46.9467 126.977 46.52C127.751 46.0933 128.651 45.88 129.677 45.88ZM129.697 48C129.124 48 128.644 48.1867 128.257 48.56C127.884 48.9333 127.664 49.5133 127.597 50.3H131.777C131.764 49.6333 131.591 49.0867 131.257 48.66C130.924 48.22 130.404 48 129.697 48ZM139.574 46.08V50.28H143.734V46.08H146.714V57H143.734V52.5H139.574V57H136.594V46.08H139.574ZM159.356 51.52C159.356 53.3333 158.876 54.7333 157.916 55.72C156.969 56.7067 155.676 57.2 154.036 57.2C153.022 57.2 152.116 56.98 151.316 56.54C150.529 56.1 149.909 55.46 149.456 54.62C149.002 53.7667 148.776 52.7333 148.776 51.52C148.776 49.7067 149.249 48.3133 150.196 47.34C151.142 46.3667 152.442 45.88 154.096 45.88C155.122 45.88 156.029 46.1 156.816 46.54C157.602 46.98 158.222 47.62 158.676 48.46C159.129 49.2867 159.356 50.3067 159.356 51.52ZM151.816 51.52C151.816 52.6 151.989 53.42 152.336 53.98C152.696 54.5267 153.276 54.8 154.076 54.8C154.862 54.8 155.429 54.5267 155.776 53.98C156.136 53.42 156.316 52.6 156.316 51.52C156.316 50.44 156.136 49.6333 155.776 49.1C155.429 48.5533 154.856 48.28 154.056 48.28C153.269 48.28 152.696 48.5533 152.336 49.1C151.989 49.6333 151.816 50.44 151.816 51.52Z" fill="#333333"/>
<path d="M102.513 80.8182H97.3097L90.8281 84.9219V89.831L96.8239 86.0724H96.9773V107H102.513V80.8182ZM108.735 107H127.4V102.474H116.406V102.295L120.228 98.5497C125.61 93.6406 127.055 91.1861 127.055 88.2074C127.055 83.669 123.348 80.4602 117.735 80.4602C112.238 80.4602 108.467 83.7457 108.48 88.8849H113.734C113.721 86.3793 115.306 84.8452 117.697 84.8452C119.998 84.8452 121.711 86.277 121.711 88.5781C121.711 90.6619 120.433 92.0938 118.055 94.3821L108.735 103.011V107Z" fill="#9990F9"/>
<path d="M86.6364 122.457H89.1619V129H90.3352V122.457H92.8409V121.364H86.6364V122.457ZM97.3576 129.159C98.9087 129.159 100.042 128.384 100.4 127.23L99.2667 126.912C98.9684 127.707 98.2773 128.105 97.3576 128.105C95.9805 128.105 95.0309 127.215 94.9762 125.58H100.52V125.082C100.52 122.239 98.8292 121.264 97.2383 121.264C95.1701 121.264 93.7979 122.895 93.7979 125.241C93.7979 127.588 95.1502 129.159 97.3576 129.159ZM94.9762 124.565C95.0558 123.377 95.896 122.318 97.2383 122.318C98.511 122.318 99.3263 123.273 99.3263 124.565H94.9762ZM105.407 129.159C107.097 129.159 108.211 128.125 108.409 126.773H107.236C107.017 127.608 106.321 128.105 105.407 128.105C104.015 128.105 103.12 126.952 103.12 125.182C103.12 123.452 104.034 122.318 105.407 122.318C106.441 122.318 107.057 122.955 107.236 123.651H108.409C108.211 122.219 106.998 121.264 105.387 121.264C103.319 121.264 101.946 122.895 101.946 125.222C101.946 127.509 103.259 129.159 105.407 129.159ZM109.523 122.457H112.049V129H113.222V122.457H115.728V121.364H109.523V122.457ZM120.145 129.159C122.213 129.159 123.605 127.588 123.605 125.222C123.605 122.835 122.213 121.264 120.145 121.264C118.077 121.264 116.685 122.835 116.685 125.222C116.685 127.588 118.077 129.159 120.145 129.159ZM120.145 128.105C118.574 128.105 117.858 126.753 117.858 125.222C117.858 123.69 118.574 122.318 120.145 122.318C121.716 122.318 122.432 123.69 122.432 125.222C122.432 126.753 121.716 128.105 120.145 128.105ZM125.396 129H128.996C130.547 129 131.481 128.125 131.481 126.952C131.481 125.754 130.572 125.107 129.731 124.983C130.591 124.804 131.203 124.322 131.203 123.392C131.203 122.174 130.159 121.364 128.518 121.364H125.396V129ZM126.51 127.926V125.58H128.996C129.801 125.58 130.288 126.062 130.288 126.852C130.288 127.518 129.801 127.926 128.996 127.926H126.51ZM126.51 124.565V122.438H128.518C129.458 122.438 130.03 122.83 130.03 123.472C130.03 124.153 129.458 124.565 128.518 124.565H126.51Z" fill="black"/>
</g>
<g filter="url(#filter1_d_340_199)">
<rect x="208" y="15" width="168" height="141" rx="20" fill="white"/>
<path d="M279.651 67.0449L271.404 86H266.937L275.198 68.0996H264.593V64.6719H279.651V67.0449ZM293.86 64.4521V67.9385H293.45C291.536 67.9678 289.993 68.4658 288.821 69.4326C287.659 70.3994 286.961 71.7422 286.727 73.4609C287.859 72.3086 289.29 71.7324 291.019 71.7324C292.874 71.7324 294.349 72.3965 295.442 73.7246C296.536 75.0527 297.083 76.8008 297.083 78.9688C297.083 80.3555 296.78 81.6104 296.175 82.7334C295.579 83.8564 294.729 84.7305 293.626 85.3555C292.532 85.9805 291.292 86.293 289.905 86.293C287.659 86.293 285.843 85.5117 284.456 83.9492C283.079 82.3867 282.391 80.3018 282.391 77.6943V76.1709C282.391 73.8564 282.825 71.8154 283.694 70.0479C284.573 68.2705 285.828 66.8984 287.459 65.9316C289.1 64.9551 290.999 64.4619 293.157 64.4521H293.86ZM289.729 75.1309C289.046 75.1309 288.426 75.3115 287.869 75.6729C287.312 76.0244 286.902 76.4932 286.639 77.0791V78.3682C286.639 79.7842 286.917 80.8926 287.474 81.6934C288.03 82.4844 288.812 82.8799 289.817 82.8799C290.726 82.8799 291.458 82.5234 292.015 81.8105C292.581 81.0879 292.864 80.1553 292.864 79.0127C292.864 77.8506 292.581 76.9131 292.015 76.2002C291.448 75.4873 290.687 75.1309 289.729 75.1309ZM299.544 68.7734C299.544 67.4648 299.969 66.4053 300.818 65.5947C301.668 64.7744 302.781 64.3643 304.158 64.3643C305.555 64.3643 306.678 64.7695 307.527 65.5801C308.377 66.3809 308.802 67.4697 308.802 68.8467V69.9014C308.802 71.2197 308.377 72.2793 307.527 73.0801C306.678 73.8809 305.564 74.2812 304.188 74.2812C302.801 74.2812 301.678 73.8809 300.818 73.0801C299.969 72.2695 299.544 71.1807 299.544 69.8135V68.7734ZM302.356 69.9014C302.356 70.4873 302.522 70.9609 302.854 71.3223C303.196 71.6738 303.641 71.8496 304.188 71.8496C304.734 71.8496 305.169 71.6689 305.491 71.3076C305.813 70.9463 305.975 70.4629 305.975 69.8574V68.7734C305.975 68.1875 305.813 67.7139 305.491 67.3525C305.169 66.9912 304.725 66.8105 304.158 66.8105C303.621 66.8105 303.187 66.9912 302.854 67.3525C302.522 67.7041 302.356 68.1973 302.356 68.832V69.9014ZM309.739 80.7705C309.739 79.4521 310.169 78.3926 311.028 77.5918C311.888 76.7812 313.001 76.376 314.368 76.376C315.755 76.376 316.873 76.7764 317.723 77.5771C318.582 78.3682 319.012 79.4619 319.012 80.8584V81.9131C319.012 83.2217 318.592 84.2812 317.752 85.0918C316.912 85.8926 315.794 86.293 314.397 86.293C312.991 86.293 311.863 85.8877 311.014 85.0771C310.164 84.2666 309.739 83.1924 309.739 81.8545V80.7705ZM312.552 81.9131C312.552 82.4502 312.728 82.9092 313.079 83.29C313.431 83.6709 313.87 83.8613 314.397 83.8613C315.589 83.8613 316.185 83.2021 316.185 81.8838V80.7705C316.185 80.1846 316.019 79.7158 315.687 79.3643C315.354 79.0029 314.915 78.8223 314.368 78.8223C313.821 78.8223 313.382 79.0029 313.05 79.3643C312.718 79.7158 312.552 80.1992 312.552 80.8145V81.9131ZM305.022 84.4033L302.957 83.29L313.372 66.6201L315.438 67.7334L305.022 84.4033Z" fill="#9990F9"/>
<path d="M270.214 99.234C270.214 100.475 269.897 101.437 269.262 102.118C268.637 102.799 267.787 103.14 266.714 103.14C266.051 103.14 265.459 102.991 264.936 102.692C264.423 102.384 264.017 101.941 263.718 101.362C263.419 100.774 263.27 100.065 263.27 99.234C263.27 97.9927 263.583 97.036 264.208 96.364C264.833 95.692 265.683 95.356 266.756 95.356C267.437 95.356 268.035 95.51 268.548 95.818C269.071 96.1167 269.477 96.5553 269.766 97.134C270.065 97.7033 270.214 98.4033 270.214 99.234ZM264.544 99.234C264.544 100.121 264.717 100.825 265.062 101.348C265.417 101.861 265.977 102.118 266.742 102.118C267.498 102.118 268.053 101.861 268.408 101.348C268.763 100.825 268.94 100.121 268.94 99.234C268.94 98.3473 268.763 97.652 268.408 97.148C268.053 96.644 267.493 96.392 266.728 96.392C265.963 96.392 265.407 96.644 265.062 97.148C264.717 97.652 264.544 98.3473 264.544 99.234ZM275.177 103.14C274.514 103.14 273.921 103.005 273.399 102.734C272.885 102.463 272.479 102.043 272.181 101.474C271.891 100.905 271.747 100.177 271.747 99.29C271.747 98.366 271.901 97.6147 272.209 97.036C272.517 96.4573 272.932 96.0327 273.455 95.762C273.987 95.4913 274.589 95.356 275.261 95.356C275.643 95.356 276.012 95.398 276.367 95.482C276.721 95.5567 277.011 95.65 277.235 95.762L276.857 96.784C276.633 96.7 276.371 96.6207 276.073 96.546C275.774 96.4713 275.494 96.434 275.233 96.434C273.758 96.434 273.021 97.3813 273.021 99.276C273.021 100.181 273.198 100.877 273.553 101.362C273.917 101.838 274.453 102.076 275.163 102.076C275.573 102.076 275.933 102.034 276.241 101.95C276.558 101.866 276.847 101.763 277.109 101.642V102.734C276.857 102.865 276.577 102.963 276.269 103.028C275.97 103.103 275.606 103.14 275.177 103.14ZM284.927 97.386C284.927 97.8527 284.787 98.2167 284.507 98.478C284.227 98.7393 283.868 98.9167 283.429 99.01V99.066C283.896 99.1313 284.302 99.2993 284.647 99.57C284.992 99.8313 285.165 100.242 285.165 100.802C285.165 101.437 284.927 101.964 284.451 102.384C283.984 102.795 283.21 103 282.127 103H278.893V95.496H282.113C282.645 95.496 283.121 95.5567 283.541 95.678C283.97 95.79 284.306 95.986 284.549 96.266C284.801 96.5367 284.927 96.91 284.927 97.386ZM283.681 97.54C283.681 97.1853 283.55 96.9287 283.289 96.77C283.037 96.602 282.622 96.518 282.043 96.518H280.125V98.576H281.819C283.06 98.576 283.681 98.2307 283.681 97.54ZM283.891 100.802C283.891 100.373 283.728 100.065 283.401 99.878C283.074 99.6913 282.594 99.598 281.959 99.598H280.125V102.006H281.987C282.603 102.006 283.074 101.917 283.401 101.74C283.728 101.553 283.891 101.241 283.891 100.802ZM293.484 99.234C293.484 100.475 293.166 101.437 292.532 102.118C291.906 102.799 291.057 103.14 289.984 103.14C289.321 103.14 288.728 102.991 288.206 102.692C287.692 102.384 287.286 101.941 286.988 101.362C286.689 100.774 286.54 100.065 286.54 99.234C286.54 97.9927 286.852 97.036 287.478 96.364C288.103 95.692 288.952 95.356 290.026 95.356C290.707 95.356 291.304 95.51 291.818 95.818C292.34 96.1167 292.746 96.5553 293.036 97.134C293.334 97.7033 293.484 98.4033 293.484 99.234ZM287.814 99.234C287.814 100.121 287.986 100.825 288.332 101.348C288.686 101.861 289.246 102.118 290.012 102.118C290.768 102.118 291.323 101.861 291.678 101.348C292.032 100.825 292.21 100.121 292.21 99.234C292.21 98.3473 292.032 97.652 291.678 97.148C291.323 96.644 290.763 96.392 289.998 96.392C289.232 96.392 288.677 96.644 288.332 97.148C287.986 97.652 287.814 98.3473 287.814 99.234ZM298.334 95.356C298.978 95.356 299.529 95.496 299.986 95.776C300.453 96.056 300.807 96.4527 301.05 96.966C301.302 97.47 301.428 98.0627 301.428 98.744V99.486H296.29C296.309 100.335 296.523 100.984 296.934 101.432C297.354 101.871 297.937 102.09 298.684 102.09C299.16 102.09 299.58 102.048 299.944 101.964C300.317 101.871 300.7 101.74 301.092 101.572V102.65C300.709 102.818 300.331 102.939 299.958 103.014C299.585 103.098 299.141 103.14 298.628 103.14C297.919 103.14 297.289 102.995 296.738 102.706C296.197 102.417 295.772 101.987 295.464 101.418C295.165 100.839 295.016 100.135 295.016 99.304C295.016 98.4827 295.151 97.778 295.422 97.19C295.702 96.602 296.089 96.1493 296.584 95.832C297.088 95.5147 297.671 95.356 298.334 95.356ZM298.32 96.364C297.732 96.364 297.265 96.5553 296.92 96.938C296.584 97.3113 296.383 97.834 296.318 98.506H300.14C300.131 97.8713 299.981 97.358 299.692 96.966C299.403 96.5647 298.945 96.364 298.32 96.364ZM304.57 95.496V98.618H308.644V95.496H309.876V103H308.644V99.654H304.57V103H303.338V95.496H304.57ZM318.776 99.234C318.776 100.475 318.459 101.437 317.825 102.118C317.199 102.799 316.35 103.14 315.277 103.14C314.614 103.14 314.021 102.991 313.499 102.692C312.985 102.384 312.579 101.941 312.281 101.362C311.982 100.774 311.833 100.065 311.833 99.234C311.833 97.9927 312.145 97.036 312.771 96.364C313.396 95.692 314.245 95.356 315.319 95.356C316 95.356 316.597 95.51 317.111 95.818C317.633 96.1167 318.039 96.5553 318.329 97.134C318.627 97.7033 318.776 98.4033 318.776 99.234ZM313.107 99.234C313.107 100.121 313.279 100.825 313.625 101.348C313.979 101.861 314.539 102.118 315.305 102.118C316.061 102.118 316.616 101.861 316.971 101.348C317.325 100.825 317.503 100.121 317.503 99.234C317.503 98.3473 317.325 97.652 316.971 97.148C316.616 96.644 316.056 96.392 315.291 96.392C314.525 96.392 313.97 96.644 313.625 97.148C313.279 97.652 313.107 98.3473 313.107 99.234Z" fill="#6A6A6A"/>
<path d="M343.5 82.5C343.5 110.943 320.443 134 292 134C263.557 134 240.5 110.943 240.5 82.5C240.5 54.0573 263.557 31 292 31C320.443 31 343.5 54.0573 343.5 82.5ZM248.74 82.5C248.74 106.392 268.108 125.76 292 125.76C315.892 125.76 335.26 106.392 335.26 82.5C335.26 58.6082 315.892 39.24 292 39.24C268.108 39.24 248.74 58.6082 248.74 82.5Z" fill="#C8C6DE"/>
<path d="M292 35.12C292 32.8446 293.848 30.9829 296.116 31.1647C303.089 31.7238 309.89 33.6991 316.098 36.9861C323.523 40.9171 329.873 46.6046 334.595 53.5527C339.317 60.5008 342.267 68.4986 343.189 76.8487C344.111 85.1987 342.976 93.6475 339.883 101.458C336.791 109.269 331.835 116.205 325.447 121.661C319.059 127.117 311.433 130.927 303.234 132.76C295.036 134.592 286.514 134.391 278.411 132.175C271.635 130.321 265.325 127.105 259.859 122.739C258.081 121.319 258.009 118.697 259.566 117.039C261.124 115.38 263.72 115.316 265.52 116.708C269.99 120.169 275.106 122.728 280.585 124.227C287.391 126.089 294.55 126.258 301.437 124.718C308.324 123.179 314.729 119.978 320.095 115.395C325.461 110.812 329.624 104.986 332.222 98.4251C334.82 91.8639 335.773 84.7669 334.999 77.7529C334.224 70.7388 331.746 64.0207 327.78 58.1843C323.813 52.3478 318.479 47.5703 312.243 44.2683C307.223 41.6106 301.741 39.9736 296.114 39.436C293.849 39.2197 292 37.3954 292 35.12Z" fill="#7167DA"/>
</g>
<g filter="url(#filter2_d_340_199)">
<rect x="391" y="15" width="329" height="141" rx="20" fill="white"/>
</g>
<path d="M539 23C539 18.5817 542.582 15 547 15H575C579.418 15 583 18.5817 583 23V96H539V23Z" fill="url(#paint0_linear_340_199)"/>
<path d="M700 52.0478C692.97 52.0636 685.241 51.9225 675.5 52.7139C653.5 54.5011 640 77.8792 617.5 77.8792C591.134 77.8792 581 42 561.5 42C542 42 545.5 62.6804 506 62.6804C487.189 62.6804 486.5 86.4084 450.5 89.5898C445.158 90.0618 441 93 435 93" stroke="#7012CE" stroke-width="4"/>
<path d="M564.7 129.438C564.376 126.75 562.342 125.205 559.649 125.205C556.575 125.205 554.229 127.375 554.229 131.182C554.229 134.977 556.536 137.159 559.649 137.159C562.632 137.159 564.433 135.176 564.7 133.034L562.212 133.023C561.979 134.267 561.001 134.983 559.689 134.983C557.922 134.983 556.723 133.67 556.723 131.182C556.723 128.761 557.905 127.381 559.706 127.381C561.053 127.381 562.024 128.159 562.212 129.438H564.7ZM566.419 140.273H568.839V135.602H568.913C569.249 136.33 569.982 137.142 571.391 137.142C573.379 137.142 574.93 135.568 574.93 132.648C574.93 129.648 573.311 128.159 571.396 128.159C569.936 128.159 569.237 129.028 568.913 129.739H568.805V128.273H566.419V140.273ZM568.788 132.636C568.788 131.08 569.447 130.085 570.624 130.085C571.822 130.085 572.459 131.125 572.459 132.636C572.459 134.159 571.811 135.216 570.624 135.216C569.459 135.216 568.788 134.193 568.788 132.636Z" fill="#070417"/>
<path opacity="0.4" d="M500.433 137H504.637C507.387 137 508.523 135.659 508.523 133.909C508.523 132.068 507.251 131.068 506.183 131V130.886C507.183 130.614 508.069 129.955 508.069 128.455C508.069 126.75 506.933 125.364 504.501 125.364H500.433V137ZM501.842 135.75V131.705H504.705C506.228 131.705 507.183 132.727 507.183 133.909C507.183 134.932 506.478 135.75 504.637 135.75H501.842ZM501.842 130.477V126.614H504.501C506.046 126.614 506.728 127.432 506.728 128.455C506.728 129.682 505.728 130.477 504.455 130.477H501.842ZM510.157 129.523H513.043V137H514.384V129.523H517.248V128.273H510.157V129.523Z" fill="#070417"/>
<path opacity="0.4" d="M453.184 125.364H444.502V137H445.911V126.614H451.775V137H453.184V125.364ZM457.185 128.273H455.844V137H457.185V133.273H461.367V137H462.708V128.273H461.367V132.023H457.185V128.273Z" fill="#070417"/>
<path opacity="0.4" d="M612.531 125.364V129.25C612.531 131.818 613.985 132.773 616.394 132.773C617.803 132.773 618.673 132.591 619.621 132.307V137H621.031V125.364H619.621V131.028C618.627 131.318 617.57 131.5 616.394 131.5C614.894 131.5 613.94 130.977 613.94 129.25V125.364H612.531ZM623.173 129.523H626.059V137H627.4V129.523H630.263V128.273H623.173V129.523Z" fill="#070417"/>
<path opacity="0.4" d="M676.567 125.364H667.885V137H669.294V126.614H675.158V137H676.567V125.364ZM678.727 129.523H681.614V137H682.955V129.523H685.818V128.273H678.727V129.523Z" fill="#070417"/>
<path opacity="0.4" d="M415.375 101.139C417.622 101.139 418.915 99.2351 418.915 95.9091C418.915 92.608 417.602 90.679 415.375 90.679C413.148 90.679 411.835 92.608 411.835 95.9091C411.835 99.2351 413.128 101.139 415.375 101.139ZM415.375 100.045C413.893 100.045 413.028 98.5589 413.028 95.9091C413.028 93.2642 413.903 91.7528 415.375 91.7528C416.847 91.7528 417.722 93.2642 417.722 95.9091C417.722 98.5589 416.857 100.045 415.375 100.045Z" fill="#070417"/>
<line opacity="0.05" x1="435" y1="95.5" x2="684" y2="95.5" stroke="black" stroke-dasharray="8 8"/>
<path opacity="0.4" d="M417.634 64.8182H416.401L413.855 66.5085V67.7614L416.341 66.1108H416.401V75H417.634V64.8182Z" fill="#070417"/>
<line opacity="0.05" x1="435" y1="69.5" x2="684" y2="69.5" stroke="black" stroke-dasharray="8 8"/>
<path opacity="0.4" d="M415.494 49.1392C417.468 49.1392 418.935 47.9013 418.935 46.2358C418.935 44.9432 418.169 44.0036 416.886 43.7898V43.7102C417.915 43.397 418.557 42.5518 418.557 41.4034C418.557 39.9616 417.418 38.679 415.534 38.679C413.774 38.679 412.312 39.7628 412.253 41.3636H413.446C413.491 40.3494 414.455 39.7528 415.514 39.7528C416.638 39.7528 417.364 40.4339 417.364 41.4631C417.364 42.5369 416.523 43.233 415.315 43.233H414.5V44.3267H415.315C416.862 44.3267 417.722 45.1122 417.722 46.2358C417.722 47.3146 416.782 48.0455 415.474 48.0455C414.296 48.0455 413.362 47.4389 413.287 46.4545H412.034C412.109 48.0554 413.521 49.1392 415.494 49.1392Z" fill="#070417"/>
<line opacity="0.05" x1="435" y1="43.5" x2="684" y2="43.5" stroke="black" stroke-dasharray="8 8"/>
<line x1="561.5" y1="15" x2="561.5" y2="104" stroke="white" stroke-dasharray="8 8"/>
<g filter="url(#filter3_b_340_199)">
<circle cx="561" cy="42" r="12" fill="#7012CE"/>
</g>
<circle cx="561" cy="42" r="5" fill="white"/>
<defs>
<filter id="filter0_d_340_199" x="0" y="0" width="218" height="191" filterUnits="userSpaceOnUse" color-interpolation-filters="sRGB">
<feFlood flood-opacity="0" result="BackgroundImageFix"/>
<feColorMatrix in="SourceAlpha" type="matrix" values="0 0 0 0 0 0 0 0 0 0 0 0 0 0 0 0 0 0 127 0" result="hardAlpha"/>
<feMorphology radius="10" operator="erode" in="SourceAlpha" result="effect1_dropShadow_340_199"/>
<feOffset dy="10"/>
<feGaussianBlur stdDeviation="17.5"/>
<feComposite in2="hardAlpha" operator="out"/>
<feColorMatrix type="matrix" values="0 0 0 0 0 0 0 0 0 0 0 0 0 0 0 0 0 0 0.1 0"/>
<feBlend mode="normal" in2="BackgroundImageFix" result="effect1_dropShadow_340_199"/>
<feBlend mode="normal" in="SourceGraphic" in2="effect1_dropShadow_340_199" result="shape"/>
</filter>
<filter id="filter1_d_340_199" x="183" y="0" width="218" height="191" filterUnits="userSpaceOnUse" color-interpolation-filters="sRGB">
<feFlood flood-opacity="0" result="BackgroundImageFix"/>
<feColorMatrix in="SourceAlpha" type="matrix" values="0 0 0 0 0 0 0 0 0 0 0 0 0 0 0 0 0 0 127 0" result="hardAlpha"/>
<feMorphology radius="10" operator="erode" in="SourceAlpha" result="effect1_dropShadow_340_199"/>
<feOffset dy="10"/>
<feGaussianBlur stdDeviation="17.5"/>
<feComposite in2="hardAlpha" operator="out"/>
<feColorMatrix type="matrix" values="0 0 0 0 0 0 0 0 0 0 0 0 0 0 0 0 0 0 0.1 0"/>
<feBlend mode="normal" in2="BackgroundImageFix" result="effect1_dropShadow_340_199"/>
<feBlend mode="normal" in="SourceGraphic" in2="effect1_dropShadow_340_199" result="shape"/>
</filter>
<filter id="filter2_d_340_199" x="366" y="0" width="379" height="191" filterUnits="userSpaceOnUse" color-interpolation-filters="sRGB">
<feFlood flood-opacity="0" result="BackgroundImageFix"/>
<feColorMatrix in="SourceAlpha" type="matrix" values="0 0 0 0 0 0 0 0 0 0 0 0 0 0 0 0 0 0 127 0" result="hardAlpha"/>
<feMorphology radius="10" operator="erode" in="SourceAlpha" result="effect1_dropShadow_340_199"/>
<feOffset dy="10"/>
<feGaussianBlur stdDeviation="17.5"/>
<feComposite in2="hardAlpha" operator="out"/>
<feColorMatrix type="matrix" values="0 0 0 0 0 0 0 0 0 0 0 0 0 0 0 0 0 0 0.1 0"/>
<feBlend mode="normal" in2="BackgroundImageFix" result="effect1_dropShadow_340_199"/>
<feBlend mode="normal" in="SourceGraphic" in2="effect1_dropShadow_340_199" result="shape"/>
</filter>
<filter id="filter3_b_340_199" x="525" y="6" width="72" height="72" filterUnits="userSpaceOnUse" color-interpolation-filters="sRGB">
<feFlood flood-opacity="0" result="BackgroundImageFix"/>
<feGaussianBlur in="BackgroundImage" stdDeviation="12"/>
<feComposite in2="SourceAlpha" operator="in" result="effect1_backgroundBlur_340_199"/>
<feBlend mode="normal" in="SourceGraphic" in2="effect1_backgroundBlur_340_199" result="shape"/>
</filter>
<linearGradient id="paint0_linear_340_199" x1="561" y1="15" x2="561" y2="96" gradientUnits="userSpaceOnUse">
<stop stop-color="#E9E9FF" stop-opacity="0.25"/>
<stop offset="1" stop-color="#E9E9FF"/>
</linearGradient>
</defs>
</svg>
