<svg width="98" height="98" viewBox="0 0 98 98" fill="none" xmlns="http://www.w3.org/2000/svg">
<path d="M94 49C94 73.8528 73.8528 94 49 94C24.1472 94 4 73.8528 4 49C4 24.1472 24.1472 4 49 4C73.8528 4 94 24.1472 94 49Z" stroke="#C8C6DE" stroke-width="8"/>
<path d="M70.6915 88C84.5867 80.3804 94 65.6676 94 48.7674C94 24.0431 73.8528 4 49 4" stroke="#3DD598" stroke-width="8" stroke-linecap="round"/>
<path d="M77 49C77 64.464 64.464 77 49 77C33.536 77 21 64.464 21 49C21 33.536 33.536 21 49 21C64.464 21 77 33.536 77 49Z" stroke="#C8C6DE" stroke-width="8"/>
<path d="M49 77C64.464 77 77 64.464 77 49C77 33.536 64.464 21 49 21" stroke="#FFC542" stroke-width="8" stroke-linecap="round"/>
<path d="M61 49C61 55.6274 55.6274 61 49 61C42.3726 61 37 55.6274 37 49C37 42.3726 42.3726 37 49 37C55.6274 37 61 42.3726 61 49Z" stroke="#C8C6DE" stroke-width="8"/>
<path d="M59.3257 55C60.3893 53.2203 61 51.142 61 48.9221C61 42.3377 55.6274 37 49 37" stroke="#FF575F" stroke-width="8" stroke-linecap="round"/>
</svg>
