<svg width="157" height="34" viewBox="0 0 157 34" fill="none" xmlns="http://www.w3.org/2000/svg">
<rect x="0.5" y="0.5" width="156" height="32.0231" rx="14.5" stroke="#FFC542"/>
<rect width="114.731" height="33.0231" rx="15" fill="#FFC542"/>
<path d="M42.7813 13.9835C42.675 13.5645 42.4818 13.2502 42.2016 13.0407C41.9214 12.8311 41.5301 12.7264 41.0277 12.7264C40.2645 12.7264 39.6945 13.0042 39.3177 13.5599C38.9409 14.1065 38.7428 15.0175 38.7235 16.2929C38.9747 15.892 39.3418 15.5823 39.8249 15.3637C40.308 15.145 40.8297 15.0357 41.3901 15.0357C42.0277 15.0357 42.5881 15.1678 43.0712 15.432C43.5639 15.6871 43.9455 16.0606 44.2161 16.5525C44.4962 17.0444 44.6363 17.632 44.6363 18.3152C44.6363 18.9529 44.5011 19.5223 44.2305 20.0233C43.9697 20.5244 43.5784 20.9206 43.0567 21.2122C42.5349 21.4946 41.9069 21.6358 41.1727 21.6358C40.1775 21.6358 39.3949 21.4308 38.8249 21.0209C38.2645 20.6018 37.8684 20.0142 37.6365 19.2581C37.4143 18.502 37.3032 17.5591 37.3032 16.4295C37.3032 13.0953 38.5496 11.4282 41.0422 11.4282C42.0084 11.4282 42.7668 11.6742 43.3175 12.1661C43.8779 12.658 44.2064 13.2639 44.303 13.9835H42.7813ZM41.0277 16.3475C40.4384 16.3475 39.936 16.5161 39.5205 16.8531C39.1148 17.1811 38.9119 17.6593 38.9119 18.2879C38.9119 18.9165 39.1003 19.4175 39.4771 19.791C39.8635 20.1554 40.3997 20.3376 41.0857 20.3376C41.6944 20.3376 42.1726 20.16 42.5205 19.8047C42.8779 19.4494 43.0567 18.9757 43.0567 18.3836C43.0567 17.7641 42.8828 17.2722 42.5349 16.9078C42.1968 16.5343 41.6944 16.3475 41.0277 16.3475Z" fill="white"/>
<path d="M46.3986 16.5252C46.3986 14.9492 46.6788 13.7193 47.2392 12.8357C47.8092 11.9429 48.785 11.4965 50.1666 11.4965C51.5482 11.4965 52.5192 11.9429 53.0796 12.8357C53.6496 13.7193 53.9346 14.9492 53.9346 16.5252C53.9346 18.1194 53.6496 19.3674 53.0796 20.2693C52.5192 21.1621 51.5482 21.6084 50.1666 21.6084C48.785 21.6084 47.8092 21.1621 47.2392 20.2693C46.6788 19.3674 46.3986 18.1194 46.3986 16.5252ZM52.3115 16.5252C52.3115 15.7873 52.2583 15.1632 52.1521 14.6531C52.0555 14.1429 51.8526 13.7285 51.5434 13.4096C51.2342 13.0817 50.7753 12.9177 50.1666 12.9177C49.5579 12.9177 49.099 13.0817 48.7898 13.4096C48.4807 13.7285 48.273 14.1429 48.1667 14.6531C48.0701 15.1632 48.0218 15.7873 48.0218 16.5252C48.0218 17.2904 48.0701 17.9326 48.1667 18.4519C48.2633 18.9711 48.4662 19.3902 48.7754 19.709C49.0942 20.0279 49.5579 20.1873 50.1666 20.1873C50.7753 20.1873 51.2342 20.0279 51.5434 19.709C51.8622 19.3902 52.0699 18.9711 52.1666 18.4519C52.2632 17.9326 52.3115 17.2904 52.3115 16.5252Z" fill="white"/>
<path d="M55.4219 14.0792C55.4219 13.4142 55.6248 12.8949 56.0306 12.5214C56.446 12.1388 56.9774 11.9475 57.6247 11.9475C58.272 11.9475 58.7986 12.1388 59.2044 12.5214C59.6198 12.8949 59.8276 13.4142 59.8276 14.0792C59.8276 14.7442 59.6198 15.268 59.2044 15.6506C58.7986 16.0332 58.272 16.2245 57.6247 16.2245C56.9774 16.2245 56.446 16.0332 56.0306 15.6506C55.6248 15.268 55.4219 14.7442 55.4219 14.0792ZM64.2622 12.1251L58.4798 21.6358H56.8566L62.6391 12.1251H64.2622ZM57.6247 12.8903C57.016 12.8903 56.7117 13.2866 56.7117 14.0792C56.7117 14.8808 57.016 15.2817 57.6247 15.2817C57.9146 15.2817 58.1368 15.186 58.2914 14.9947C58.4556 14.7943 58.5377 14.4891 58.5377 14.0792C58.5377 13.2866 58.2334 12.8903 57.6247 12.8903ZM61.3203 19.668C61.3203 19.003 61.5232 18.4838 61.9289 18.1103C62.3444 17.7277 62.8758 17.5364 63.5231 17.5364C64.1608 17.5364 64.6825 17.7277 65.0883 18.1103C65.5037 18.4838 65.7114 19.003 65.7114 19.668C65.7114 20.3331 65.5037 20.8569 65.0883 21.2395C64.6825 21.6221 64.1608 21.8134 63.5231 21.8134C62.8758 21.8134 62.3444 21.6221 61.9289 21.2395C61.5232 20.8569 61.3203 20.3331 61.3203 19.668ZM63.5086 18.4792C62.8999 18.4792 62.5956 18.8755 62.5956 19.668C62.5956 20.4606 62.8999 20.8569 63.5086 20.8569C64.1173 20.8569 64.4216 20.4606 64.4216 19.668C64.4216 18.8755 64.1173 18.4792 63.5086 18.4792Z" fill="white"/>
</svg>
