<svg width="130" height="29" viewBox="0 0 130 29" fill="none" xmlns="http://www.w3.org/2000/svg">
<rect width="130" height="29" rx="14.5" fill="#0EB990"/>
<path d="M51 11.404V10.156H53.496V18.904H52.116V11.404H51Z" fill="white"/>
<path d="M55.3753 14.416C55.3753 13.032 55.6073 11.952 56.0713 11.176C56.5433 10.392 57.3513 10 58.4953 10C59.6393 10 60.4433 10.392 60.9073 11.176C61.3793 11.952 61.6153 13.032 61.6153 14.416C61.6153 15.816 61.3793 16.912 60.9073 17.704C60.4433 18.488 59.6393 18.88 58.4953 18.88C57.3513 18.88 56.5433 18.488 56.0713 17.704C55.6073 16.912 55.3753 15.816 55.3753 14.416ZM60.2713 14.416C60.2713 13.768 60.2273 13.22 60.1393 12.772C60.0593 12.324 59.8913 11.96 59.6353 11.68C59.3793 11.392 58.9993 11.248 58.4953 11.248C57.9913 11.248 57.6113 11.392 57.3553 11.68C57.0993 11.96 56.9273 12.324 56.8393 12.772C56.7593 13.22 56.7193 13.768 56.7193 14.416C56.7193 15.088 56.7593 15.652 56.8393 16.108C56.9193 16.564 57.0873 16.932 57.3433 17.212C57.6073 17.492 57.9913 17.632 58.4953 17.632C58.9993 17.632 59.3793 17.492 59.6353 17.212C59.8993 16.932 60.0713 16.564 60.1513 16.108C60.2313 15.652 60.2713 15.088 60.2713 14.416Z" fill="white"/>
<path d="M63.0628 14.416C63.0628 13.032 63.2948 11.952 63.7588 11.176C64.2308 10.392 65.0388 10 66.1828 10C67.3268 10 68.1308 10.392 68.5948 11.176C69.0668 11.952 69.3028 13.032 69.3028 14.416C69.3028 15.816 69.0668 16.912 68.5948 17.704C68.1308 18.488 67.3268 18.88 66.1828 18.88C65.0388 18.88 64.2308 18.488 63.7588 17.704C63.2948 16.912 63.0628 15.816 63.0628 14.416ZM67.9588 14.416C67.9588 13.768 67.9148 13.22 67.8268 12.772C67.7468 12.324 67.5788 11.96 67.3228 11.68C67.0668 11.392 66.6868 11.248 66.1828 11.248C65.6788 11.248 65.2988 11.392 65.0428 11.68C64.7868 11.96 64.6148 12.324 64.5268 12.772C64.4468 13.22 64.4068 13.768 64.4068 14.416C64.4068 15.088 64.4468 15.652 64.5268 16.108C64.6068 16.564 64.7748 16.932 65.0308 17.212C65.2948 17.492 65.6788 17.632 66.1828 17.632C66.6868 17.632 67.0668 17.492 67.3228 17.212C67.5868 16.932 67.7588 16.564 67.8388 16.108C67.9188 15.652 67.9588 15.088 67.9588 14.416Z" fill="white"/>
<path d="M70.5343 12.268C70.5343 11.684 70.7023 11.228 71.0383 10.9C71.3823 10.564 71.8223 10.396 72.3583 10.396C72.8943 10.396 73.3303 10.564 73.6663 10.9C74.0103 11.228 74.1823 11.684 74.1823 12.268C74.1823 12.852 74.0103 13.312 73.6663 13.648C73.3303 13.984 72.8943 14.152 72.3583 14.152C71.8223 14.152 71.3823 13.984 71.0383 13.648C70.7023 13.312 70.5343 12.852 70.5343 12.268ZM77.8543 10.552L73.0663 18.904H71.7223L76.5103 10.552H77.8543ZM72.3583 11.224C71.8543 11.224 71.6023 11.572 71.6023 12.268C71.6023 12.972 71.8543 13.324 72.3583 13.324C72.5983 13.324 72.7823 13.24 72.9103 13.072C73.0463 12.896 73.1143 12.628 73.1143 12.268C73.1143 11.572 72.8623 11.224 72.3583 11.224ZM75.4183 17.176C75.4183 16.592 75.5863 16.136 75.9223 15.808C76.2663 15.472 76.7063 15.304 77.2423 15.304C77.7703 15.304 78.2023 15.472 78.5383 15.808C78.8823 16.136 79.0543 16.592 79.0543 17.176C79.0543 17.76 78.8823 18.22 78.5383 18.556C78.2023 18.892 77.7703 19.06 77.2423 19.06C76.7063 19.06 76.2663 18.892 75.9223 18.556C75.5863 18.22 75.4183 17.76 75.4183 17.176ZM77.2303 16.132C76.7263 16.132 76.4743 16.48 76.4743 17.176C76.4743 17.872 76.7263 18.22 77.2303 18.22C77.7343 18.22 77.9863 17.872 77.9863 17.176C77.9863 16.48 77.7343 16.132 77.2303 16.132Z" fill="white"/>
</svg>
