<svg width="20" height="20" viewBox="0 0 20 20" fill="none" xmlns="http://www.w3.org/2000/svg">
<path d="M9.99992 3.99996C9.63173 3.99996 9.33325 3.70148 9.33325 3.33329C9.33325 2.9651 9.63173 2.66663 9.99992 2.66663C10.3681 2.66663 10.6666 2.9651 10.6666 3.33329C10.6666 3.70148 10.3681 3.99996 9.99992 3.99996Z" stroke="#1A1D1E" stroke-width="1.5"/>
<path d="M9.99992 10.6666C9.63173 10.6666 9.33325 10.3681 9.33325 9.99996C9.33325 9.63177 9.63173 9.33329 9.99992 9.33329C10.3681 9.33329 10.6666 9.63177 10.6666 9.99996C10.6666 10.3681 10.3681 10.6666 9.99992 10.6666Z" stroke="#1A1D1E" stroke-width="1.5"/>
<path d="M9.99992 17.3333C9.63173 17.3333 9.33325 17.0348 9.33325 16.6666C9.33325 16.2984 9.63173 16 9.99992 16C10.3681 16 10.6666 16.2984 10.6666 16.6666C10.6666 17.0348 10.3681 17.3333 9.99992 17.3333Z" stroke="#1A1D1E" stroke-width="1.5"/>
</svg>
