<svg width="104" height="108" viewBox="0 0 104 108" fill="none" xmlns="http://www.w3.org/2000/svg">
<path d="M39.6514 36.0449L31.4043 55H26.9365L35.1982 37.0996H24.5928V33.6719H39.6514V36.0449Z" fill="black"/>
<path d="M53.8604 33.4521V36.9385H53.4502C51.5361 36.9678 49.9932 37.4658 48.8213 38.4326C47.6592 39.3994 46.9609 40.7422 46.7266 42.4609C47.8594 41.3086 49.29 40.7324 51.0186 40.7324C52.874 40.7324 54.3486 41.3965 55.4424 42.7246C56.5361 44.0527 57.083 45.8008 57.083 47.9688C57.083 49.3555 56.7803 50.6104 56.1748 51.7334C55.5791 52.8564 54.7295 53.7305 53.626 54.3555C52.5322 54.9805 51.292 55.293 49.9053 55.293C47.6592 55.293 45.8428 54.5117 44.4561 52.9492C43.0791 51.3867 42.3906 49.3018 42.3906 46.6943V45.1709C42.3906 42.8564 42.8252 40.8154 43.6943 39.0479C44.5732 37.2705 45.8281 35.8984 47.459 34.9316C49.0996 33.9551 50.999 33.4619 53.1572 33.4521H53.8604ZM49.7295 44.1309C49.0459 44.1309 48.4258 44.3115 47.8691 44.6729C47.3125 45.0244 46.9023 45.4932 46.6387 46.0791V47.3682C46.6387 48.7842 46.917 49.8926 47.4736 50.6934C48.0303 51.4844 48.8115 51.8799 49.8174 51.8799C50.7256 51.8799 51.458 51.5234 52.0146 50.8105C52.5811 50.0879 52.8643 49.1553 52.8643 48.0127C52.8643 46.8506 52.5811 45.9131 52.0146 45.2002C51.4482 44.4873 50.6865 44.1309 49.7295 44.1309Z" fill="black"/>
<path d="M59.5439 37.7734C59.5439 36.4648 59.9688 35.4053 60.8184 34.5947C61.668 33.7744 62.7812 33.3643 64.1582 33.3643C65.5547 33.3643 66.6777 33.7695 67.5273 34.5801C68.377 35.3809 68.8018 36.4697 68.8018 37.8467V38.9014C68.8018 40.2197 68.377 41.2793 67.5273 42.0801C66.6777 42.8809 65.5645 43.2812 64.1875 43.2812C62.8008 43.2812 61.6777 42.8809 60.8184 42.0801C59.9688 41.2695 59.5439 40.1807 59.5439 38.8135V37.7734ZM62.3564 38.9014C62.3564 39.4873 62.5225 39.9609 62.8545 40.3223C63.1963 40.6738 63.6406 40.8496 64.1875 40.8496C64.7344 40.8496 65.1689 40.6689 65.4912 40.3076C65.8135 39.9463 65.9746 39.4629 65.9746 38.8574V37.7734C65.9746 37.1875 65.8135 36.7139 65.4912 36.3525C65.1689 35.9912 64.7246 35.8105 64.1582 35.8105C63.6211 35.8105 63.1865 35.9912 62.8545 36.3525C62.5225 36.7041 62.3564 37.1973 62.3564 37.832V38.9014ZM69.7393 49.7705C69.7393 48.4521 70.1689 47.3926 71.0283 46.5918C71.8877 45.7812 73.001 45.376 74.3682 45.376C75.7549 45.376 76.873 45.7764 77.7227 46.5771C78.582 47.3682 79.0117 48.4619 79.0117 49.8584V50.9131C79.0117 52.2217 78.5918 53.2812 77.752 54.0918C76.9121 54.8926 75.7939 55.293 74.3975 55.293C72.9912 55.293 71.8633 54.8877 71.0137 54.0771C70.1641 53.2666 69.7393 52.1924 69.7393 50.8545V49.7705ZM72.5518 50.9131C72.5518 51.4502 72.7275 51.9092 73.0791 52.29C73.4307 52.6709 73.8701 52.8613 74.3975 52.8613C75.5889 52.8613 76.1846 52.2021 76.1846 50.8838V49.7705C76.1846 49.1846 76.0186 48.7158 75.6865 48.3643C75.3545 48.0029 74.915 47.8223 74.3682 47.8223C73.8213 47.8223 73.3818 48.0029 73.0498 48.3643C72.7178 48.7158 72.5518 49.1992 72.5518 49.8145V50.9131ZM65.0225 53.4033L62.957 52.29L73.3721 35.6201L75.4375 36.7334L65.0225 53.4033Z" fill="black"/>
<path d="M30.214 68.234C30.214 69.4754 29.8967 70.4367 29.262 71.118C28.6367 71.7994 27.7874 72.14 26.714 72.14C26.0514 72.14 25.4587 71.9907 24.936 71.692C24.4227 71.384 24.0167 70.9407 23.718 70.362C23.4194 69.774 23.27 69.0647 23.27 68.234C23.27 66.9927 23.5827 66.036 24.208 65.364C24.8334 64.692 25.6827 64.356 26.756 64.356C27.4374 64.356 28.0347 64.51 28.548 64.818C29.0707 65.1167 29.4767 65.5554 29.766 66.134C30.0647 66.7034 30.214 67.4034 30.214 68.234ZM24.544 68.234C24.544 69.1207 24.7167 69.8254 25.062 70.348C25.4167 70.8614 25.9767 71.118 26.742 71.118C27.498 71.118 28.0534 70.8614 28.408 70.348C28.7627 69.8254 28.94 69.1207 28.94 68.234C28.94 67.3474 28.7627 66.652 28.408 66.148C28.0534 65.644 27.4934 65.392 26.728 65.392C25.9627 65.392 25.4074 65.644 25.062 66.148C24.7167 66.652 24.544 67.3474 24.544 68.234Z" fill="#6A6A6A"/>
<path d="M35.1766 72.14C34.5139 72.14 33.9212 72.0047 33.3986 71.734C32.8852 71.4634 32.4792 71.0434 32.1806 70.474C31.8912 69.9047 31.7466 69.1767 31.7466 68.29C31.7466 67.366 31.9006 66.6147 32.2086 66.036C32.5166 65.4574 32.9319 65.0327 33.4546 64.762C33.9866 64.4914 34.5886 64.356 35.2606 64.356C35.6432 64.356 36.0119 64.398 36.3666 64.482C36.7212 64.5567 37.0106 64.65 37.2346 64.762L36.8566 65.784C36.6326 65.7 36.3712 65.6207 36.0726 65.546C35.7739 65.4714 35.4939 65.434 35.2326 65.434C33.7579 65.434 33.0206 66.3814 33.0206 68.276C33.0206 69.1814 33.1979 69.8767 33.5526 70.362C33.9166 70.838 34.4532 71.076 35.1626 71.076C35.5732 71.076 35.9326 71.034 36.2406 70.95C36.5579 70.866 36.8472 70.7634 37.1086 70.642V71.734C36.8566 71.8647 36.5766 71.9627 36.2686 72.028C35.9699 72.1027 35.6059 72.14 35.1766 72.14Z" fill="#6A6A6A"/>
<path d="M44.9271 66.386C44.9271 66.8527 44.7871 67.2167 44.5071 67.478C44.2271 67.7394 43.8678 67.9167 43.4291 68.01V68.066C43.8958 68.1314 44.3018 68.2994 44.6471 68.57C44.9925 68.8314 45.1651 69.242 45.1651 69.802C45.1651 70.4367 44.9271 70.964 44.4511 71.384C43.9845 71.7947 43.2098 72 42.1271 72H38.8931V64.496H42.1131C42.6451 64.496 43.1211 64.5567 43.5411 64.678C43.9705 64.79 44.3065 64.986 44.5491 65.266C44.8011 65.5367 44.9271 65.91 44.9271 66.386ZM43.6811 66.54C43.6811 66.1854 43.5505 65.9287 43.2891 65.77C43.0371 65.602 42.6218 65.518 42.0431 65.518H40.1251V67.576H41.8191C43.0605 67.576 43.6811 67.2307 43.6811 66.54ZM43.8911 69.802C43.8911 69.3727 43.7278 69.0647 43.4011 68.878C43.0745 68.6914 42.5938 68.598 41.9591 68.598H40.1251V71.006H41.9871C42.6031 71.006 43.0745 70.9174 43.4011 70.74C43.7278 70.5534 43.8911 70.2407 43.8911 69.802Z" fill="#6A6A6A"/>
<path d="M53.4836 68.234C53.4836 69.4754 53.1662 70.4367 52.5316 71.118C51.9062 71.7994 51.0569 72.14 49.9836 72.14C49.3209 72.14 48.7282 71.9907 48.2056 71.692C47.6922 71.384 47.2862 70.9407 46.9876 70.362C46.6889 69.774 46.5396 69.0647 46.5396 68.234C46.5396 66.9927 46.8522 66.036 47.4776 65.364C48.1029 64.692 48.9522 64.356 50.0256 64.356C50.7069 64.356 51.3042 64.51 51.8176 64.818C52.3402 65.1167 52.7462 65.5554 53.0356 66.134C53.3342 66.7034 53.4836 67.4034 53.4836 68.234ZM47.8136 68.234C47.8136 69.1207 47.9862 69.8254 48.3316 70.348C48.6862 70.8614 49.2462 71.118 50.0116 71.118C50.7676 71.118 51.3229 70.8614 51.6776 70.348C52.0322 69.8254 52.2096 69.1207 52.2096 68.234C52.2096 67.3474 52.0322 66.652 51.6776 66.148C51.3229 65.644 50.7629 65.392 49.9976 65.392C49.2322 65.392 48.6769 65.644 48.3316 66.148C47.9862 66.652 47.8136 67.3474 47.8136 68.234Z" fill="#6A6A6A"/>
<path d="M58.3341 64.356C58.9781 64.356 59.5288 64.496 59.9861 64.776C60.4528 65.056 60.8074 65.4527 61.0501 65.966C61.3021 66.47 61.4281 67.0627 61.4281 67.744V68.486H56.2901C56.3088 69.3354 56.5234 69.984 56.9341 70.432C57.3541 70.8707 57.9374 71.09 58.6841 71.09C59.1601 71.09 59.5801 71.048 59.9441 70.964C60.3174 70.8707 60.7001 70.74 61.0921 70.572V71.65C60.7094 71.818 60.3314 71.9394 59.9581 72.014C59.5848 72.098 59.1414 72.14 58.6281 72.14C57.9188 72.14 57.2888 71.9954 56.7381 71.706C56.1968 71.4167 55.7721 70.9874 55.4641 70.418C55.1654 69.8394 55.0161 69.1347 55.0161 68.304C55.0161 67.4827 55.1514 66.778 55.4221 66.19C55.7021 65.602 56.0894 65.1494 56.5841 64.832C57.0881 64.5147 57.6714 64.356 58.3341 64.356ZM58.3201 65.364C57.7321 65.364 57.2654 65.5554 56.9201 65.938C56.5841 66.3114 56.3834 66.834 56.3181 67.506H60.1401C60.1308 66.8714 59.9814 66.358 59.6921 65.966C59.4028 65.5647 58.9454 65.364 58.3201 65.364Z" fill="#6A6A6A"/>
<path d="M64.5705 64.496V67.618H68.6445V64.496H69.8765V72H68.6445V68.654H64.5705V72H63.3385V64.496H64.5705Z" fill="#6A6A6A"/>
<path d="M78.7765 68.234C78.7765 69.4754 78.4592 70.4367 77.8245 71.118C77.1992 71.7994 76.3499 72.14 75.2765 72.14C74.6139 72.14 74.0212 71.9907 73.4985 71.692C72.9852 71.384 72.5792 70.9407 72.2805 70.362C71.9819 69.774 71.8325 69.0647 71.8325 68.234C71.8325 66.9927 72.1452 66.036 72.7705 65.364C73.3959 64.692 74.2452 64.356 75.3185 64.356C75.9999 64.356 76.5972 64.51 77.1105 64.818C77.6332 65.1167 78.0392 65.5554 78.3285 66.134C78.6272 66.7034 78.7765 67.4034 78.7765 68.234ZM73.1065 68.234C73.1065 69.1207 73.2792 69.8254 73.6245 70.348C73.9792 70.8614 74.5392 71.118 75.3045 71.118C76.0605 71.118 76.6159 70.8614 76.9705 70.348C77.3252 69.8254 77.5025 69.1207 77.5025 68.234C77.5025 67.3474 77.3252 66.652 76.9705 66.148C76.6159 65.644 76.0559 65.392 75.2905 65.392C74.5252 65.392 73.9699 65.644 73.6245 66.148C73.2792 66.652 73.1065 67.3474 73.1065 68.234Z" fill="#6A6A6A"/>
<path d="M103.5 51.5C103.5 79.9427 80.4427 103 52 103C23.5573 103 0.5 79.9427 0.5 51.5C0.5 23.0573 23.5573 0 52 0C80.4427 0 103.5 23.0573 103.5 51.5ZM8.74 51.5C8.74 75.3918 28.1082 94.76 52 94.76C75.8918 94.76 95.26 75.3918 95.26 51.5C95.26 27.6082 75.8918 8.24 52 8.24C28.1082 8.24 8.74 27.6082 8.74 51.5Z" fill="#C8C6DE"/>
<path d="M52 4.12001C52 1.84459 53.8476 -0.0171259 56.1157 0.164713C63.089 0.723767 69.8904 2.69914 76.0984 5.98607C83.5227 9.91706 89.8727 15.6046 94.5947 22.5527C99.3166 29.5008 102.267 37.4986 103.189 45.8487C104.111 54.1987 102.976 62.6475 99.8835 70.4584C96.791 78.2693 91.8346 85.205 85.4466 90.6609C79.0586 96.1168 71.4329 99.9271 63.2344 101.76C55.0359 103.592 46.5136 103.391 38.4105 101.175C31.6351 99.3212 25.3248 96.1052 19.8588 91.7392C18.0809 90.3191 18.0085 87.6972 19.5662 86.0385V86.0385C21.1238 84.3798 23.7202 84.3156 25.5196 85.7084C29.9899 89.1689 35.1064 91.728 40.5849 93.2268C47.3914 95.0888 54.5502 95.2575 61.4369 93.7182C68.3236 92.1788 74.7292 88.9781 80.0951 84.3952C85.4611 79.8122 89.6244 73.9862 92.2221 67.4251C94.8199 60.8639 95.7731 53.7669 94.9988 46.7529C94.2244 39.7388 91.7459 33.0207 87.7795 27.1843C83.8131 21.3478 78.4791 16.5703 72.2426 13.2683C67.223 10.6106 61.7414 8.97364 56.1139 8.43605C53.8487 8.21966 52 6.39542 52 4.12001V4.12001Z" fill="url(#paint0_radial_424_165)"/>
<defs>
<radialGradient id="paint0_radial_424_165" cx="0" cy="0" r="1" gradientUnits="userSpaceOnUse" gradientTransform="translate(14.6625 -43.775) rotate(42.7688) scale(140.308)">
<stop stop-color="white"/>
<stop offset="1" stop-color="#7167DA"/>
</radialGradient>
</defs>
</svg>
