<svg width="48" height="48" viewBox="0 0 48 48" fill="none" xmlns="http://www.w3.org/2000/svg">
<g id="list_alt_24px">
<path id="Vector" fill-rule="evenodd" clip-rule="evenodd" d="M14.723 5.05047C8.98072 6.26204 4.40788 10.6529 2.91121 16.3921C1.69627 21.051 1.69626 25.9491 2.91121 30.6079C4.40788 36.3472 8.98072 40.738 14.723 41.9495L15.8203 42.181C20.9956 43.273 26.3378 43.273 31.5131 42.181L32.6103 41.9495C38.3526 40.738 42.9255 36.3471 44.4221 30.6079C45.6371 25.949 45.6371 21.051 44.4221 16.3921C42.9255 10.6529 38.3526 6.26203 32.6103 5.05047L31.5131 4.81896C26.3378 3.72701 20.9956 3.72701 15.8203 4.81896L14.723 5.05047Z" fill="#7167DA"/>
<path id="Vector_2" d="M15.3157 25.7811L16.0459 25.6098L15.3157 25.7811ZM15.3157 20.324L16.0459 20.4953L15.3157 20.324ZM30.7893 20.324L31.5195 20.1527L30.7893 20.324ZM30.7893 25.781L31.5195 25.9523L30.7893 25.781ZM25.781 30.7893L25.6098 30.0591L25.781 30.7893ZM20.324 30.7893L20.1527 31.5195L20.324 30.7893ZM20.324 15.3157L20.1527 14.5855L20.324 15.3157ZM25.781 15.3157L25.9523 14.5855L25.781 15.3157ZM32.4697 33.5303C32.7626 33.8232 33.2374 33.8232 33.5303 33.5303C33.8232 33.2374 33.8232 32.7626 33.5303 32.4697L32.4697 33.5303ZM16.0459 25.6098C15.6514 23.9278 15.6514 22.1773 16.0459 20.4953L14.5855 20.1527C14.1382 22.06 14.1382 24.045 14.5855 25.9523L16.0459 25.6098ZM30.0591 20.4953C30.4537 22.1773 30.4537 23.9278 30.0591 25.6098L31.5195 25.9523C31.9669 24.045 31.9669 22.06 31.5195 20.1527L30.0591 20.4953ZM25.6098 30.0591C23.9278 30.4537 22.1773 30.4537 20.4953 30.0591L20.1527 31.5195C22.06 31.9669 24.045 31.9669 25.9523 31.5195L25.6098 30.0591ZM20.4953 16.0459C22.1773 15.6514 23.9278 15.6514 25.6098 16.0459L25.9523 14.5855C24.045 14.1382 22.06 14.1382 20.1527 14.5855L20.4953 16.0459ZM20.4953 30.0591C18.2876 29.5413 16.5638 27.8175 16.0459 25.6098L14.5855 25.9523C15.2335 28.7147 17.3904 30.8715 20.1527 31.5195L20.4953 30.0591ZM25.9523 31.5195C28.7147 30.8715 30.8715 28.7147 31.5195 25.9523L30.0591 25.6098C29.5413 27.8175 27.8175 29.5413 25.6098 30.0591L25.9523 31.5195ZM25.6098 16.0459C27.8175 16.5638 29.5413 18.2876 30.0591 20.4953L31.5195 20.1527C30.8715 17.3904 28.7147 15.2335 25.9523 14.5855L25.6098 16.0459ZM20.1527 14.5855C17.3904 15.2335 15.2335 17.3904 14.5855 20.1527L16.0459 20.4953C16.5638 18.2876 18.2876 16.5638 20.4953 16.0459L20.1527 14.5855ZM28.8048 29.8655L32.4697 33.5303L33.5303 32.4697L29.8655 28.8048L28.8048 29.8655Z" fill="white"/>
</g>
</svg>
