<svg width="19" height="20" viewBox="0 0 19 20" fill="none" xmlns="http://www.w3.org/2000/svg">
<path fill-rule="evenodd" clip-rule="evenodd" d="M17.9023 11.5802C18.26 11.7702 18.536 12.0702 18.7301 12.3702C19.1083 12.9902 19.0776 13.7502 18.7097 14.4202L17.9943 15.6202C17.6162 16.2602 16.911 16.6602 16.1855 16.6602C15.8278 16.6602 15.4292 16.5602 15.1022 16.3602C14.8365 16.1902 14.5299 16.1302 14.2029 16.1302C13.1911 16.1302 12.3429 16.9602 12.3122 17.9502C12.3122 19.1002 11.372 20.0002 10.1968 20.0002H8.80692C7.62145 20.0002 6.68125 19.1002 6.68125 17.9502C6.66081 16.9602 5.81259 16.1302 4.80085 16.1302C4.46361 16.1302 4.15702 16.1902 3.90153 16.3602C3.5745 16.5602 3.16572 16.6602 2.81825 16.6602C2.08245 16.6602 1.37729 16.2602 0.99917 15.6202L0.29402 14.4202C-0.0841044 13.7702 -0.104544 12.9902 0.273581 12.3702C0.437094 12.0702 0.743681 11.7702 1.09115 11.5802C1.37729 11.4402 1.56125 11.2102 1.73498 10.9402C2.24596 10.0802 1.93937 8.95024 1.07071 8.44024C0.0589696 7.87024 -0.268057 6.60024 0.314459 5.61024L0.99917 4.43024C1.59191 3.44024 2.85913 3.09024 3.88109 3.67024C4.77019 4.15024 5.925 3.83024 6.4462 2.98024C6.60972 2.70024 6.70169 2.40024 6.68125 2.10024C6.66081 1.71024 6.77323 1.34024 6.9674 1.04024C7.34553 0.420244 8.03024 0.0202441 8.77627 0.000244141H10.2172C10.9735 0.000244141 11.6582 0.420244 12.0363 1.04024C12.2203 1.34024 12.3429 1.71024 12.3122 2.10024C12.2918 2.40024 12.3838 2.70024 12.5473 2.98024C13.0685 3.83024 14.2233 4.15024 15.1226 3.67024C16.1344 3.09024 17.4118 3.44024 17.9943 4.43024L18.679 5.61024C19.2718 6.60024 18.9447 7.87024 17.9228 8.44024C17.0541 8.95024 16.7475 10.0802 17.2687 10.9402C17.4322 11.2102 17.6162 11.4402 17.9023 11.5802ZM6.60971 10.0102C6.60971 11.5802 7.9076 12.8302 9.51207 12.8302C11.1165 12.8302 12.3838 11.5802 12.3838 10.0102C12.3838 8.44024 11.1165 7.18024 9.51207 7.18024C7.9076 7.18024 6.60971 8.44024 6.60971 10.0102Z" fill="#A8A8AA"/>
</svg>
