<svg width="22" height="20" viewBox="0 0 22 20" fill="none" xmlns="http://www.w3.org/2000/svg">
<path fill-rule="evenodd" clip-rule="evenodd" d="M6.52824 0.775234C3.65711 1.38102 1.37069 3.57643 0.622351 6.44604C0.0148805 8.77548 0.0148804 11.2245 0.622351 13.554C1.37069 16.4236 3.65711 18.619 6.52824 19.2248L7.07688 19.3405C9.66452 19.8865 12.3356 19.8865 14.9233 19.3405L15.4719 19.2248C18.3431 18.619 20.6295 16.4236 21.3778 13.554C21.9853 11.2245 21.9853 8.77548 21.3778 6.44605C20.6295 3.57643 18.3431 1.38102 15.4719 0.775233L14.9233 0.659478C12.3356 0.113507 9.66452 0.113507 7.07688 0.659478L6.52824 0.775234ZM13.7206 6.39937C13.5808 6.18721 13.3455 6.05977 13.0935 6.05977C12.8415 6.05977 12.6062 6.18721 12.4664 6.39937L8.90663 11.8027L7.44027 9.57696C7.30049 9.3648 7.06518 9.23736 6.8132 9.23736H4.71977C4.30355 9.23736 3.96614 9.5788 3.96614 9.99998C3.96614 10.4212 4.30355 10.7626 4.71977 10.7626H6.40987L8.27957 13.6006C8.41935 13.8128 8.65465 13.9402 8.90663 13.9402C9.15862 13.9402 9.39392 13.8128 9.5337 13.6006L13.0935 8.19723L14.5599 10.423C14.6996 10.6352 14.9349 10.7626 15.1869 10.7626H17.2804C17.6966 10.7626 18.034 10.4212 18.034 9.99998C18.034 9.5788 17.6966 9.23736 17.2804 9.23736H15.5903L13.7206 6.39937Z" fill="#A8A8AA"/>
</svg>
