<svg width="299" height="36" viewBox="0 0 299 36" fill="none" xmlns="http://www.w3.org/2000/svg">
<rect width="140" height="36" rx="12" fill="#9990F9"/>
<path d="M45.2064 23H47.0509V18.6747H51.7689V23H53.6184V12.8182H51.7689V17.1285H47.0509V12.8182H45.2064V23Z" fill="white"/>
<path d="M58.9255 23.1491C60.7054 23.1491 61.9284 22.2791 62.2465 20.9517L60.5662 20.7628C60.3225 21.4091 59.726 21.7472 58.9504 21.7472C57.787 21.7472 57.0164 20.9815 57.0015 19.674H62.3211V19.1222C62.3211 16.4425 60.7103 15.2642 58.8311 15.2642C56.6436 15.2642 55.2167 16.87 55.2167 19.2266C55.2167 21.6229 56.6237 23.1491 58.9255 23.1491ZM57.0065 18.4609C57.0612 17.4865 57.7821 16.6662 58.8559 16.6662C59.89 16.6662 60.586 17.4219 60.596 18.4609H57.0065Z" fill="white"/>
<path d="M63.1675 25.2173H64.9374V23H69.9339V25.2173H71.6739V21.5185H70.4907V15.3636H64.9722L64.7535 18.0383C64.6093 19.7486 64.4204 21.0163 63.7741 21.5185H63.1675V25.2173ZM65.6235 21.5185C66.1057 20.8075 66.2847 19.6541 66.414 18.0383L66.5333 16.8153H68.7705V21.5185H65.6235Z" fill="white"/>
<path d="M76.3982 23.1491C78.178 23.1491 79.401 22.2791 79.7192 20.9517L78.0388 20.7628C77.7952 21.4091 77.1986 21.7472 76.423 21.7472C75.2597 21.7472 74.4891 20.9815 74.4742 19.674H79.7938V19.1222C79.7938 16.4425 78.183 15.2642 76.3037 15.2642C74.1162 15.2642 72.6894 16.87 72.6894 19.2266C72.6894 21.6229 74.0963 23.1491 76.3982 23.1491ZM74.4791 18.4609C74.5338 17.4865 75.2547 16.6662 76.3286 16.6662C77.3627 16.6662 78.0587 17.4219 78.0686 18.4609H74.4791Z" fill="white"/>
<path d="M80.7893 23H81.3462C82.9868 23 83.7275 21.8466 83.8469 19.3011L83.9662 16.8402H86.1587V23H87.8987V15.3636H82.3305L82.1963 18.7443C82.1118 20.8871 81.8334 21.5185 81.0429 21.5185H80.7794L80.7893 23Z" fill="white"/>
<path d="M94.2251 23H95.9104V15.3636H92.5944C90.7251 15.3636 89.5667 16.3231 89.5717 17.7898C89.5667 18.7543 90.0937 19.4851 91.0035 19.8579L89.2932 23H91.0631L92.6292 20.1264H94.2251V23ZM94.2251 18.8139H92.5347C91.7442 18.8139 91.3067 18.4013 91.3117 17.8295C91.3067 17.2578 91.7691 16.8253 92.5944 16.8253H94.2251V18.8139Z" fill="white"/>
<rect x="159" width="140" height="36" rx="12" fill="#FAFAFA"/>
<path d="M207.293 12.8182V23H208.755V15.6271H208.85L211.852 22.9851H213.065L216.068 15.6321H216.163V23H217.624V12.8182H215.76L212.519 20.7329H212.399L209.158 12.8182H207.293Z" fill="#6A6A6A"/>
<path d="M223.03 23.1541C224.695 23.1541 225.873 22.3338 226.212 21.0909L224.805 20.8374C224.536 21.5582 223.89 21.9261 223.045 21.9261C221.772 21.9261 220.917 21.1008 220.877 19.6293H226.306V19.1023C226.306 16.343 224.655 15.2642 222.925 15.2642C220.797 15.2642 219.395 16.8849 219.395 19.2315C219.395 21.603 220.778 23.1541 223.03 23.1541ZM220.882 18.5156C220.942 17.4318 221.727 16.4922 222.935 16.4922C224.089 16.4922 224.844 17.3473 224.849 18.5156H220.882Z" fill="#6A6A6A"/>
<path d="M231.172 23.1541C232.977 23.1541 234.145 22.0703 234.309 20.5838H232.862C232.673 21.4091 232.032 21.8963 231.182 21.8963C229.924 21.8963 229.114 20.8473 229.114 19.1818C229.114 17.5462 229.939 16.517 231.182 16.517C232.126 16.517 232.703 17.1136 232.862 17.8295H234.309C234.15 16.2883 232.892 15.2642 231.157 15.2642C229.004 15.2642 227.612 16.8849 227.612 19.2166C227.612 21.5185 228.955 23.1541 231.172 23.1541Z" fill="#6A6A6A"/>
<path d="M240.453 23H241.85V15.3636H238.623C236.863 15.3636 235.789 16.2734 235.789 17.7102C235.789 18.7145 236.316 19.4553 237.226 19.7983L235.441 23H236.963L238.628 20.0121H240.453V23ZM240.453 18.8089H238.524C237.713 18.8089 237.241 18.3814 237.246 17.7301C237.241 17.0739 237.753 16.6314 238.623 16.6314H240.453V18.8089Z" fill="#6A6A6A"/>
<path d="M250.053 15.3636H248.606V21.7173H245.28V15.3636H243.823V23H249.71V25.4609H251.181V21.782H250.053V15.3636Z" fill="#6A6A6A"/>
</svg>
