<svg width="761" height="36" viewBox="0 0 761 36" fill="none" xmlns="http://www.w3.org/2000/svg">
<rect width="122" height="36" rx="10" fill="#9990F9"/>
<path d="M33.9148 12.8182V19.4602C33.9148 20.9517 32.8906 22.0256 31.1903 22.0256C29.4901 22.0256 28.4659 20.9517 28.4659 19.4602V12.8182H27.233V19.5597C27.233 21.6477 28.794 23.179 31.1903 23.179C33.5866 23.179 35.1477 21.6477 35.1477 19.5597V12.8182H33.9148ZM38.2065 12.8182H36.7548L40.036 17.9091L36.7548 23H38.2065L40.8315 18.8438H40.911L43.536 23H44.9877L41.786 17.9091L44.9877 12.8182H43.536L40.911 17.054H40.8315L38.2065 12.8182ZM49.8512 18.0881H45.3967V19.1818H49.8512V18.0881ZM54.7992 23.1591C56.2708 23.1591 56.7679 22.2443 57.0265 21.8267H57.1657V23H58.2992V12.8182H57.1259V16.5767H57.0265C56.7679 16.179 56.3105 15.2642 54.8191 15.2642C52.8901 15.2642 51.5577 16.7955 51.5577 19.2017C51.5577 21.6278 52.8901 23.1591 54.7992 23.1591ZM54.9583 22.1051C53.4867 22.1051 52.731 20.8125 52.731 19.1818C52.731 17.571 53.4668 16.3182 54.9583 16.3182C56.3901 16.3182 57.1458 17.4716 57.1458 19.1818C57.1458 20.9119 56.3702 22.1051 54.9583 22.1051ZM63.8127 23.1591C65.3638 23.1591 66.4973 22.3835 66.8553 21.2301L65.7218 20.9119C65.4235 21.7074 64.7324 22.1051 63.8127 22.1051C62.4355 22.1051 61.486 21.2152 61.4313 19.5795H66.9746V19.0824C66.9746 16.2386 65.2843 15.2642 63.6934 15.2642C61.6252 15.2642 60.253 16.8949 60.253 19.2415C60.253 21.5881 61.6053 23.1591 63.8127 23.1591ZM61.4313 18.5653C61.5108 17.3771 62.351 16.3182 63.6934 16.3182C64.9661 16.3182 65.7814 17.2727 65.7814 18.5653H61.4313ZM74.1685 17.0739C73.8006 15.9901 72.9753 15.2642 71.464 15.2642C69.8532 15.2642 68.66 16.179 68.66 17.4716C68.66 18.5256 69.2864 19.2315 70.6884 19.5597L71.9611 19.858C72.7317 20.0369 73.0946 20.4048 73.0946 20.9318C73.0946 21.5881 72.3986 22.125 71.3049 22.125C70.3453 22.125 69.7438 21.7124 69.535 20.892L68.4213 21.1705C68.6948 22.468 69.7637 23.1591 71.3248 23.1591C73.0996 23.1591 74.3077 22.1896 74.3077 20.8722C74.3077 19.8082 73.6415 19.1371 72.2793 18.804L71.1458 18.5256C70.2409 18.3018 69.8333 17.9986 69.8333 17.4119C69.8333 16.7557 70.5293 16.2784 71.464 16.2784C72.4881 16.2784 72.9107 16.8452 73.1145 17.3722L74.1685 17.0739ZM76.0739 23H77.2472V15.3636H76.0739V23ZM76.6705 14.0909C77.1278 14.0909 77.5057 13.733 77.5057 13.2955C77.5057 12.858 77.1278 12.5 76.6705 12.5C76.2131 12.5 75.8352 12.858 75.8352 13.2955C75.8352 13.733 76.2131 14.0909 76.6705 14.0909ZM82.4785 26.0227C84.3081 26.0227 85.7797 25.1875 85.7797 23.2188V15.3636H84.6461V16.5767H84.5268C84.2683 16.179 83.791 15.2642 82.2995 15.2642C80.3706 15.2642 79.0382 16.7955 79.0382 19.142C79.0382 21.5284 80.4302 22.8807 82.2797 22.8807C83.7711 22.8807 84.2484 22.0057 84.5069 21.5881H84.6064V23.1392C84.6064 24.4119 83.7115 24.9886 82.4785 24.9886C81.0914 24.9886 80.6042 24.2578 80.291 23.8352L79.3564 24.4915C79.8336 25.2919 80.7733 26.0227 82.4785 26.0227ZM82.4387 21.8267C80.9672 21.8267 80.2115 20.7131 80.2115 19.1222C80.2115 17.571 80.9473 16.3182 82.4387 16.3182C83.8706 16.3182 84.6262 17.4716 84.6262 19.1222C84.6262 20.8125 83.8507 21.8267 82.4387 21.8267ZM89.1007 18.4062C89.1007 17.0739 89.926 16.3182 91.0495 16.3182C92.1383 16.3182 92.7995 17.0291 92.7995 18.2273V23H93.9728V18.1477C93.9728 16.1989 92.9338 15.2642 91.3876 15.2642C90.2342 15.2642 89.5183 15.7812 89.1603 16.5568H89.0609V15.3636H87.9274V23H89.1007V18.4062Z" fill="white"/>
<path d="M164.372 13.004H165.548V18.492C165.548 18.8 165.543 19.1453 165.534 19.528C165.525 19.9107 165.511 20.2607 165.492 20.578C165.483 20.8953 165.469 21.1287 165.45 21.278H165.506L171.008 13.004H172.408V23H171.232V17.568C171.232 17.2227 171.237 16.854 171.246 16.462C171.265 16.07 171.283 15.7107 171.302 15.384C171.321 15.0573 171.335 14.824 171.344 14.684H171.288L165.772 23H164.372V13.004ZM177.946 23.14C177.283 23.14 176.691 23.0047 176.168 22.734C175.655 22.4633 175.249 22.0433 174.95 21.474C174.661 20.9047 174.516 20.1767 174.516 19.29C174.516 18.366 174.67 17.6147 174.978 17.036C175.286 16.4573 175.701 16.0327 176.224 15.762C176.756 15.4913 177.358 15.356 178.03 15.356C178.413 15.356 178.781 15.398 179.136 15.482C179.491 15.5567 179.78 15.65 180.004 15.762L179.626 16.784C179.402 16.7 179.141 16.6207 178.842 16.546C178.543 16.4713 178.263 16.434 178.002 16.434C176.527 16.434 175.79 17.3813 175.79 19.276C175.79 20.1813 175.967 20.8767 176.322 21.362C176.686 21.838 177.223 22.076 177.932 22.076C178.343 22.076 178.702 22.034 179.01 21.95C179.327 21.866 179.617 21.7633 179.878 21.642V22.734C179.626 22.8647 179.346 22.9627 179.038 23.028C178.739 23.1027 178.375 23.14 177.946 23.14ZM184.673 23.14C184.01 23.14 183.417 23.0047 182.895 22.734C182.381 22.4633 181.975 22.0433 181.677 21.474C181.387 20.9047 181.243 20.1767 181.243 19.29C181.243 18.366 181.397 17.6147 181.705 17.036C182.013 16.4573 182.428 16.0327 182.951 15.762C183.483 15.4913 184.085 15.356 184.757 15.356C185.139 15.356 185.508 15.398 185.863 15.482C186.217 15.5567 186.507 15.65 186.731 15.762L186.353 16.784C186.129 16.7 185.867 16.6207 185.569 16.546C185.27 16.4713 184.99 16.434 184.729 16.434C183.254 16.434 182.517 17.3813 182.517 19.276C182.517 20.1813 182.694 20.8767 183.049 21.362C183.413 21.838 183.949 22.076 184.659 22.076C185.069 22.076 185.429 22.034 185.737 21.95C186.054 21.866 186.343 21.7633 186.605 21.642V22.734C186.353 22.8647 186.073 22.9627 185.765 23.028C185.466 23.1027 185.102 23.14 184.673 23.14ZM194.101 23H192.855V16.518H190.643C190.522 18.0953 190.354 19.3693 190.139 20.34C189.925 21.3013 189.64 22.0013 189.285 22.44C188.931 22.8787 188.483 23.098 187.941 23.098C187.82 23.098 187.699 23.0887 187.577 23.07C187.465 23.0607 187.372 23.0373 187.297 23V22.076C187.353 22.0947 187.414 22.1087 187.479 22.118C187.545 22.1273 187.61 22.132 187.675 22.132C188.179 22.132 188.581 21.5953 188.879 20.522C189.187 19.4487 189.421 17.7733 189.579 15.496H194.101V23ZM199.381 15.356C200.025 15.356 200.576 15.496 201.033 15.776C201.5 16.056 201.854 16.4527 202.097 16.966C202.349 17.47 202.475 18.0627 202.475 18.744V19.486H197.337C197.356 20.3353 197.57 20.984 197.981 21.432C198.401 21.8707 198.984 22.09 199.731 22.09C200.207 22.09 200.627 22.048 200.991 21.964C201.364 21.8707 201.747 21.74 202.139 21.572V22.65C201.756 22.818 201.378 22.9393 201.005 23.014C200.632 23.098 200.188 23.14 199.675 23.14C198.966 23.14 198.336 22.9953 197.785 22.706C197.244 22.4167 196.819 21.9873 196.511 21.418C196.212 20.8393 196.063 20.1347 196.063 19.304C196.063 18.4827 196.198 17.778 196.469 17.19C196.749 16.602 197.136 16.1493 197.631 15.832C198.135 15.5147 198.718 15.356 199.381 15.356ZM199.367 16.364C198.779 16.364 198.312 16.5553 197.967 16.938C197.631 17.3113 197.43 17.834 197.365 18.506H201.187C201.178 17.8713 201.028 17.358 200.739 16.966C200.45 16.5647 199.992 16.364 199.367 16.364ZM209.957 15.496V21.964H211.049V25.604H209.859V23H204.637V25.604H203.461V21.964H204.063C204.707 21.0773 205.188 20.0693 205.505 18.94C205.832 17.8013 206 16.6533 206.009 15.496H209.957ZM207.101 16.462C207.064 17.0967 206.966 17.7547 206.807 18.436C206.649 19.108 206.443 19.752 206.191 20.368C205.949 20.984 205.664 21.516 205.337 21.964H208.767V16.462H207.101ZM219.044 19.234C219.044 20.4753 218.727 21.4367 218.092 22.118C217.467 22.7993 216.617 23.14 215.544 23.14C214.881 23.14 214.289 22.9907 213.766 22.692C213.253 22.384 212.847 21.9407 212.548 21.362C212.249 20.774 212.1 20.0647 212.1 19.234C212.1 17.9927 212.413 17.036 213.038 16.364C213.663 15.692 214.513 15.356 215.586 15.356C216.267 15.356 216.865 15.51 217.378 15.818C217.901 16.1167 218.307 16.5553 218.596 17.134C218.895 17.7033 219.044 18.4033 219.044 19.234ZM213.374 19.234C213.374 20.1207 213.547 20.8253 213.892 21.348C214.247 21.8613 214.807 22.118 215.572 22.118C216.328 22.118 216.883 21.8613 217.238 21.348C217.593 20.8253 217.77 20.1207 217.77 19.234C217.77 18.3473 217.593 17.652 217.238 17.148C216.883 16.644 216.323 16.392 215.558 16.392C214.793 16.392 214.237 16.644 213.892 17.148C213.547 17.652 213.374 18.3473 213.374 19.234ZM227.031 17.386C227.031 17.8527 226.891 18.2167 226.611 18.478C226.331 18.7393 225.971 18.9167 225.533 19.01V19.066C225.999 19.1313 226.405 19.2993 226.751 19.57C227.096 19.8313 227.269 20.242 227.269 20.802C227.269 21.4367 227.031 21.964 226.555 22.384C226.088 22.7947 225.313 23 224.231 23H220.997V15.496H224.217C224.749 15.496 225.225 15.5567 225.645 15.678C226.074 15.79 226.41 15.986 226.653 16.266C226.905 16.5367 227.031 16.91 227.031 17.386ZM225.785 17.54C225.785 17.1853 225.654 16.9287 225.393 16.77C225.141 16.602 224.725 16.518 224.147 16.518H222.229V18.576H223.923C225.164 18.576 225.785 18.2307 225.785 17.54ZM225.995 20.802C225.995 20.3727 225.831 20.0647 225.505 19.878C225.178 19.6913 224.697 19.598 224.063 19.598H222.229V22.006H224.091C224.707 22.006 225.178 21.9173 225.505 21.74C225.831 21.5533 225.995 21.2407 225.995 20.802ZM231.905 15.37C232.82 15.37 233.496 15.5707 233.935 15.972C234.374 16.3733 234.593 17.0127 234.593 17.89V23H233.697L233.459 21.936H233.403C233.076 22.3467 232.731 22.65 232.367 22.846C232.012 23.042 231.518 23.14 230.883 23.14C230.202 23.14 229.637 22.9627 229.189 22.608C228.741 22.244 228.517 21.6793 228.517 20.914C228.517 20.1673 228.811 19.5933 229.399 19.192C229.987 18.7813 230.892 18.5573 232.115 18.52L233.389 18.478V18.03C233.389 17.4047 233.254 16.9707 232.983 16.728C232.712 16.4853 232.33 16.364 231.835 16.364C231.443 16.364 231.07 16.4247 230.715 16.546C230.36 16.658 230.029 16.7887 229.721 16.938L229.343 16.014C229.67 15.8367 230.057 15.6873 230.505 15.566C230.953 15.4353 231.42 15.37 231.905 15.37ZM232.269 19.374C231.336 19.4113 230.687 19.5607 230.323 19.822C229.968 20.0833 229.791 20.452 229.791 20.928C229.791 21.348 229.917 21.656 230.169 21.852C230.43 22.048 230.762 22.146 231.163 22.146C231.798 22.146 232.325 21.9733 232.745 21.628C233.165 21.2733 233.375 20.732 233.375 20.004V19.332L232.269 19.374ZM238.143 15.496V18.618H242.217V15.496H243.449V23H242.217V19.654H238.143V23H236.911V15.496H238.143ZM246.987 20.074C246.987 20.186 246.982 20.354 246.973 20.578C246.963 20.802 246.949 21.026 246.931 21.25C246.921 21.474 246.912 21.6513 246.903 21.782L250.921 15.496H252.433V23H251.285V18.576C251.285 18.4267 251.285 18.2307 251.285 17.988C251.294 17.7453 251.303 17.5073 251.313 17.274C251.322 17.0313 251.331 16.8493 251.341 16.728L247.351 23H245.825V15.496H246.987V20.074ZM255.283 23H253.855L255.997 19.85C255.708 19.7753 255.428 19.6587 255.157 19.5C254.886 19.332 254.667 19.1033 254.499 18.814C254.331 18.5153 254.247 18.1467 254.247 17.708C254.247 16.9893 254.49 16.4433 254.975 16.07C255.46 15.6873 256.104 15.496 256.907 15.496H260.267V23H259.035V20.018H257.215L255.283 23ZM255.437 17.722C255.437 18.1513 255.596 18.4733 255.913 18.688C256.24 18.8933 256.692 18.996 257.271 18.996H259.035V16.518H257.033C256.464 16.518 256.053 16.63 255.801 16.854C255.558 17.078 255.437 17.3673 255.437 17.722Z" fill="#333333"/>
<rect x="137.5" y="0.5" width="150" height="35" rx="9.5" stroke="#9E9E9E"/>
<path d="M336.602 16.098C336.602 16.91 336.322 17.5867 335.762 18.128C335.211 18.66 334.367 18.926 333.228 18.926H331.352V23H330.078V13.242H333.228C334.329 13.242 335.165 13.508 335.734 14.04C336.313 14.572 336.602 15.258 336.602 16.098ZM333.228 17.876C333.937 17.876 334.46 17.722 334.796 17.414C335.132 17.106 335.3 16.6673 335.3 16.098C335.3 14.894 334.609 14.292 333.228 14.292H331.352V17.876H333.228ZM339.459 16.574C339.683 16.1353 340.001 15.7947 340.411 15.552C340.831 15.3093 341.34 15.188 341.937 15.188V16.504H341.601C340.173 16.504 339.459 17.2787 339.459 18.828V23H338.185V15.328H339.459V16.574ZM346.754 23.126C346.035 23.126 345.382 22.9627 344.794 22.636C344.215 22.3093 343.758 21.8473 343.422 21.25C343.095 20.6433 342.932 19.9433 342.932 19.15C342.932 18.366 343.1 17.6753 343.436 17.078C343.781 16.4713 344.248 16.0093 344.836 15.692C345.424 15.3653 346.082 15.202 346.81 15.202C347.538 15.202 348.196 15.3653 348.784 15.692C349.372 16.0093 349.834 16.4667 350.17 17.064C350.515 17.6613 350.688 18.3567 350.688 19.15C350.688 19.9433 350.511 20.6433 350.156 21.25C349.811 21.8473 349.339 22.3093 348.742 22.636C348.145 22.9627 347.482 23.126 346.754 23.126ZM346.754 22.006C347.211 22.006 347.641 21.8987 348.042 21.684C348.443 21.4693 348.765 21.1473 349.008 20.718C349.26 20.2887 349.386 19.766 349.386 19.15C349.386 18.534 349.265 18.0113 349.022 17.582C348.779 17.1527 348.462 16.8353 348.07 16.63C347.678 16.4153 347.253 16.308 346.796 16.308C346.329 16.308 345.9 16.4153 345.508 16.63C345.125 16.8353 344.817 17.1527 344.584 17.582C344.351 18.0113 344.234 18.534 344.234 19.15C344.234 19.7753 344.346 20.3027 344.57 20.732C344.803 21.1613 345.111 21.4833 345.494 21.698C345.877 21.9033 346.297 22.006 346.754 22.006ZM351.887 19.136C351.887 18.352 352.046 17.666 352.363 17.078C352.68 16.4807 353.114 16.0187 353.665 15.692C354.225 15.3653 354.85 15.202 355.541 15.202C356.138 15.202 356.694 15.342 357.207 15.622C357.72 15.8927 358.112 16.252 358.383 16.7V12.64H359.671V23H358.383V21.558C358.131 22.0153 357.758 22.3933 357.263 22.692C356.768 22.9813 356.19 23.126 355.527 23.126C354.846 23.126 354.225 22.958 353.665 22.622C353.114 22.286 352.68 21.8147 352.363 21.208C352.046 20.6013 351.887 19.9107 351.887 19.136ZM358.383 19.15C358.383 18.5713 358.266 18.0673 358.033 17.638C357.8 17.2087 357.482 16.882 357.081 16.658C356.689 16.4247 356.255 16.308 355.779 16.308C355.303 16.308 354.869 16.42 354.477 16.644C354.085 16.868 353.772 17.1947 353.539 17.624C353.306 18.0533 353.189 18.5573 353.189 19.136C353.189 19.724 353.306 20.2373 353.539 20.676C353.772 21.1053 354.085 21.4367 354.477 21.67C354.869 21.894 355.303 22.006 355.779 22.006C356.255 22.006 356.689 21.894 357.081 21.67C357.482 21.4367 357.8 21.1053 358.033 20.676C358.266 20.2373 358.383 19.7287 358.383 19.15ZM368.628 15.328V23H367.354V21.866C367.111 22.258 366.771 22.566 366.332 22.79C365.903 23.0047 365.427 23.112 364.904 23.112C364.307 23.112 363.77 22.9907 363.294 22.748C362.818 22.496 362.44 22.1227 362.16 21.628C361.889 21.1333 361.754 20.5313 361.754 19.822V15.328H363.014V19.654C363.014 20.41 363.205 20.9933 363.588 21.404C363.971 21.8053 364.493 22.006 365.156 22.006C365.837 22.006 366.374 21.796 366.766 21.376C367.158 20.956 367.354 20.3447 367.354 19.542V15.328H368.628ZM370.303 19.15C370.303 18.3567 370.462 17.666 370.779 17.078C371.097 16.4807 371.535 16.0187 372.095 15.692C372.665 15.3653 373.313 15.202 374.041 15.202C374.984 15.202 375.759 15.4307 376.365 15.888C376.981 16.3453 377.387 16.98 377.583 17.792H376.211C376.081 17.3253 375.824 16.9567 375.441 16.686C375.068 16.4153 374.601 16.28 374.041 16.28C373.313 16.28 372.725 16.532 372.277 17.036C371.829 17.5307 371.605 18.2353 371.605 19.15C371.605 20.074 371.829 20.788 372.277 21.292C372.725 21.796 373.313 22.048 374.041 22.048C374.601 22.048 375.068 21.9173 375.441 21.656C375.815 21.3947 376.071 21.0213 376.211 20.536H377.583C377.378 21.32 376.967 21.95 376.351 22.426C375.735 22.8927 374.965 23.126 374.041 23.126C373.313 23.126 372.665 22.9627 372.095 22.636C371.535 22.3093 371.097 21.8473 370.779 21.25C370.462 20.6527 370.303 19.9527 370.303 19.15ZM380.837 16.378V20.9C380.837 21.2733 380.916 21.5393 381.075 21.698C381.234 21.8473 381.509 21.922 381.901 21.922H382.839V23H381.691C380.982 23 380.45 22.8367 380.095 22.51C379.74 22.1833 379.563 21.6467 379.563 20.9V16.378H378.569V15.328H379.563V13.396H380.837V15.328H382.839V16.378H380.837ZM397.341 15.188C397.938 15.188 398.47 15.314 398.937 15.566C399.404 15.8087 399.772 16.1773 400.043 16.672C400.314 17.1667 400.449 17.7687 400.449 18.478V23H399.189V18.66C399.189 17.8947 398.998 17.3113 398.615 16.91C398.242 16.4993 397.733 16.294 397.089 16.294C396.426 16.294 395.899 16.5087 395.507 16.938C395.115 17.358 394.919 17.9693 394.919 18.772V23H393.659V18.66C393.659 17.8947 393.468 17.3113 393.085 16.91C392.712 16.4993 392.203 16.294 391.559 16.294C390.896 16.294 390.369 16.5087 389.977 16.938C389.585 17.358 389.389 17.9693 389.389 18.772V23H388.115V15.328H389.389V16.434C389.641 16.0327 389.977 15.7247 390.397 15.51C390.826 15.2953 391.298 15.188 391.811 15.188C392.455 15.188 393.024 15.3327 393.519 15.622C394.014 15.9113 394.382 16.336 394.625 16.896C394.84 16.3547 395.194 15.9347 395.689 15.636C396.184 15.3373 396.734 15.188 397.341 15.188ZM402.063 19.136C402.063 18.352 402.222 17.666 402.539 17.078C402.856 16.4807 403.29 16.0187 403.841 15.692C404.401 15.3653 405.022 15.202 405.703 15.202C406.375 15.202 406.958 15.3467 407.453 15.636C407.948 15.9253 408.316 16.2893 408.559 16.728V15.328H409.847V23H408.559V21.572C408.307 22.02 407.929 22.3933 407.425 22.692C406.93 22.9813 406.352 23.126 405.689 23.126C405.008 23.126 404.392 22.958 403.841 22.622C403.29 22.286 402.856 21.8147 402.539 21.208C402.222 20.6013 402.063 19.9107 402.063 19.136ZM408.559 19.15C408.559 18.5713 408.442 18.0673 408.209 17.638C407.976 17.2087 407.658 16.882 407.257 16.658C406.865 16.4247 406.431 16.308 405.955 16.308C405.479 16.308 405.045 16.42 404.653 16.644C404.261 16.868 403.948 17.1947 403.715 17.624C403.482 18.0533 403.365 18.5573 403.365 19.136C403.365 19.724 403.482 20.2373 403.715 20.676C403.948 21.1053 404.261 21.4367 404.653 21.67C405.045 21.894 405.479 22.006 405.955 22.006C406.431 22.006 406.865 21.894 407.257 21.67C407.658 21.4367 407.976 21.1053 408.209 20.676C408.442 20.2373 408.559 19.7287 408.559 19.15ZM415.738 15.188C416.671 15.188 417.427 15.4727 418.006 16.042C418.585 16.602 418.874 17.414 418.874 18.478V23H417.614V18.66C417.614 17.8947 417.423 17.3113 417.04 16.91C416.657 16.4993 416.135 16.294 415.472 16.294C414.8 16.294 414.263 16.504 413.862 16.924C413.47 17.344 413.274 17.9553 413.274 18.758V23H412V15.328H413.274V16.42C413.526 16.028 413.867 15.7247 414.296 15.51C414.735 15.2953 415.215 15.188 415.738 15.188ZM421.361 23.084C421.118 23.084 420.913 23 420.745 22.832C420.577 22.664 420.493 22.4587 420.493 22.216C420.493 21.9733 420.577 21.768 420.745 21.6C420.913 21.432 421.118 21.348 421.361 21.348C421.594 21.348 421.79 21.432 421.949 21.6C422.117 21.768 422.201 21.9733 422.201 22.216C422.201 22.4587 422.117 22.664 421.949 22.832C421.79 23 421.594 23.084 421.361 23.084Z" fill="#333333"/>
<rect x="303.5" y="0.5" width="145" height="35" rx="9.5" stroke="#9E9E9E"/>
<path d="M495.964 17.974C496.319 18.03 496.641 18.1747 496.93 18.408C497.229 18.6413 497.462 18.9307 497.63 19.276C497.807 19.6213 497.896 19.99 497.896 20.382C497.896 20.8767 497.77 21.3247 497.518 21.726C497.266 22.118 496.897 22.4307 496.412 22.664C495.936 22.888 495.371 23 494.718 23H491.078V13.242H494.578C495.241 13.242 495.805 13.354 496.272 13.578C496.739 13.7927 497.089 14.0867 497.322 14.46C497.555 14.8333 497.672 15.2533 497.672 15.72C497.672 16.2987 497.513 16.7793 497.196 17.162C496.888 17.5353 496.477 17.806 495.964 17.974ZM492.352 17.456H494.494C495.091 17.456 495.553 17.316 495.88 17.036C496.207 16.756 496.37 16.3687 496.37 15.874C496.37 15.3793 496.207 14.992 495.88 14.712C495.553 14.432 495.082 14.292 494.466 14.292H492.352V17.456ZM494.606 21.95C495.241 21.95 495.735 21.8007 496.09 21.502C496.445 21.2033 496.622 20.788 496.622 20.256C496.622 19.7147 496.435 19.29 496.062 18.982C495.689 18.6647 495.189 18.506 494.564 18.506H492.352V21.95H494.606ZM506.468 15.328V23H505.194V21.866C504.951 22.258 504.611 22.566 504.172 22.79C503.743 23.0047 503.267 23.112 502.744 23.112C502.147 23.112 501.61 22.9907 501.134 22.748C500.658 22.496 500.28 22.1227 500 21.628C499.729 21.1333 499.594 20.5313 499.594 19.822V15.328H500.854V19.654C500.854 20.41 501.045 20.9933 501.428 21.404C501.811 21.8053 502.333 22.006 502.996 22.006C503.677 22.006 504.214 21.796 504.606 21.376C504.998 20.956 505.194 20.3447 505.194 19.542V15.328H506.468ZM511.335 23.126C510.747 23.126 510.22 23.028 509.753 22.832C509.286 22.6267 508.918 22.3467 508.647 21.992C508.376 21.628 508.227 21.2127 508.199 20.746H509.515C509.552 21.1287 509.73 21.4413 510.047 21.684C510.374 21.9267 510.798 22.048 511.321 22.048C511.806 22.048 512.189 21.9407 512.469 21.726C512.749 21.5113 512.889 21.2407 512.889 20.914C512.889 20.578 512.74 20.3307 512.441 20.172C512.142 20.004 511.68 19.8407 511.055 19.682C510.486 19.5327 510.019 19.3833 509.655 19.234C509.3 19.0753 508.992 18.8467 508.731 18.548C508.479 18.24 508.353 17.8387 508.353 17.344C508.353 16.952 508.47 16.5927 508.703 16.266C508.936 15.9393 509.268 15.6827 509.697 15.496C510.126 15.3 510.616 15.202 511.167 15.202C512.016 15.202 512.702 15.4167 513.225 15.846C513.748 16.2753 514.028 16.8633 514.065 17.61H512.791C512.763 17.2087 512.6 16.8867 512.301 16.644C512.012 16.4013 511.62 16.28 511.125 16.28C510.668 16.28 510.304 16.378 510.033 16.574C509.762 16.77 509.627 17.0267 509.627 17.344C509.627 17.596 509.706 17.806 509.865 17.974C510.033 18.1327 510.238 18.2633 510.481 18.366C510.733 18.4593 511.078 18.5667 511.517 18.688C512.068 18.8373 512.516 18.9867 512.861 19.136C513.206 19.276 513.5 19.4907 513.743 19.78C513.995 20.0693 514.126 20.4473 514.135 20.914C514.135 21.334 514.018 21.712 513.785 22.048C513.552 22.384 513.22 22.65 512.791 22.846C512.371 23.0327 511.886 23.126 511.335 23.126ZM516.591 14.082C516.349 14.082 516.143 13.998 515.975 13.83C515.807 13.662 515.723 13.4567 515.723 13.214C515.723 12.9713 515.807 12.766 515.975 12.598C516.143 12.43 516.349 12.346 516.591 12.346C516.825 12.346 517.021 12.43 517.179 12.598C517.347 12.766 517.431 12.9713 517.431 13.214C517.431 13.4567 517.347 13.662 517.179 13.83C517.021 13.998 516.825 14.082 516.591 14.082ZM517.207 15.328V23H515.933V15.328H517.207ZM519.785 23.084C519.542 23.084 519.337 23 519.169 22.832C519.001 22.664 518.917 22.4587 518.917 22.216C518.917 21.9733 519.001 21.768 519.169 21.6C519.337 21.432 519.542 21.348 519.785 21.348C520.018 21.348 520.214 21.432 520.373 21.6C520.541 21.768 520.625 21.9733 520.625 22.216C520.625 22.4587 520.541 22.664 520.373 22.832C520.214 23 520.018 23.084 519.785 23.084ZM525.575 19.136C525.575 18.352 525.733 17.666 526.051 17.078C526.368 16.4807 526.802 16.0187 527.353 15.692C527.913 15.3653 528.533 15.202 529.215 15.202C529.887 15.202 530.47 15.3467 530.965 15.636C531.459 15.9253 531.828 16.2893 532.071 16.728V15.328H533.359V23H532.071V21.572C531.819 22.02 531.441 22.3933 530.937 22.692C530.442 22.9813 529.863 23.126 529.201 23.126C528.519 23.126 527.903 22.958 527.353 22.622C526.802 22.286 526.368 21.8147 526.051 21.208C525.733 20.6013 525.575 19.9107 525.575 19.136ZM532.071 19.15C532.071 18.5713 531.954 18.0673 531.721 17.638C531.487 17.2087 531.17 16.882 530.769 16.658C530.377 16.4247 529.943 16.308 529.467 16.308C528.991 16.308 528.557 16.42 528.165 16.644C527.773 16.868 527.46 17.1947 527.227 17.624C526.993 18.0533 526.877 18.5573 526.877 19.136C526.877 19.724 526.993 20.2373 527.227 20.676C527.46 21.1053 527.773 21.4367 528.165 21.67C528.557 21.894 528.991 22.006 529.467 22.006C529.943 22.006 530.377 21.894 530.769 21.67C531.17 21.4367 531.487 21.1053 531.721 20.676C531.954 20.2373 532.071 19.7287 532.071 19.15ZM539.25 15.188C540.183 15.188 540.939 15.4727 541.518 16.042C542.096 16.602 542.386 17.414 542.386 18.478V23H541.126V18.66C541.126 17.8947 540.934 17.3113 540.552 16.91C540.169 16.4993 539.646 16.294 538.984 16.294C538.312 16.294 537.775 16.504 537.374 16.924C536.982 17.344 536.786 17.9553 536.786 18.758V23H535.512V15.328H536.786V16.42C537.038 16.028 537.378 15.7247 537.808 15.51C538.246 15.2953 538.727 15.188 539.25 15.188ZM543.991 19.136C543.991 18.352 544.149 17.666 544.467 17.078C544.784 16.4807 545.218 16.0187 545.769 15.692C546.329 15.3653 546.949 15.202 547.631 15.202C548.303 15.202 548.886 15.3467 549.381 15.636C549.875 15.9253 550.244 16.2893 550.487 16.728V15.328H551.775V23H550.487V21.572C550.235 22.02 549.857 22.3933 549.353 22.692C548.858 22.9813 548.279 23.126 547.617 23.126C546.935 23.126 546.319 22.958 545.769 22.622C545.218 22.286 544.784 21.8147 544.467 21.208C544.149 20.6013 543.991 19.9107 543.991 19.136ZM550.487 19.15C550.487 18.5713 550.37 18.0673 550.137 17.638C549.903 17.2087 549.586 16.882 549.185 16.658C548.793 16.4247 548.359 16.308 547.883 16.308C547.407 16.308 546.973 16.42 546.581 16.644C546.189 16.868 545.876 17.1947 545.643 17.624C545.409 18.0533 545.293 18.5573 545.293 19.136C545.293 19.724 545.409 20.2373 545.643 20.676C545.876 21.1053 546.189 21.4367 546.581 21.67C546.973 21.894 547.407 22.006 547.883 22.006C548.359 22.006 548.793 21.894 549.185 21.67C549.586 21.4367 549.903 21.1053 550.137 20.676C550.37 20.2373 550.487 19.7287 550.487 19.15ZM555.202 12.64V23H553.928V12.64H555.202ZM563.981 15.328L559.361 26.612H558.045L559.557 22.916L556.463 15.328H557.877L560.285 21.544L562.665 15.328H563.981ZM566.816 16.378V20.9C566.816 21.2733 566.895 21.5393 567.054 21.698C567.212 21.8473 567.488 21.922 567.88 21.922H568.818V23H567.67C566.96 23 566.428 22.8367 566.074 22.51C565.719 22.1833 565.542 21.6467 565.542 20.9V16.378H564.548V15.328H565.542V13.396H566.816V15.328H568.818V16.378H566.816ZM571.019 14.082C570.777 14.082 570.571 13.998 570.403 13.83C570.235 13.662 570.151 13.4567 570.151 13.214C570.151 12.9713 570.235 12.766 570.403 12.598C570.571 12.43 570.777 12.346 571.019 12.346C571.253 12.346 571.449 12.43 571.607 12.598C571.775 12.766 571.859 12.9713 571.859 13.214C571.859 13.4567 571.775 13.662 571.607 13.83C571.449 13.998 571.253 14.082 571.019 14.082ZM571.635 15.328V23H570.361V15.328H571.635ZM573.331 19.15C573.331 18.3567 573.489 17.666 573.807 17.078C574.124 16.4807 574.563 16.0187 575.123 15.692C575.692 15.3653 576.341 15.202 577.069 15.202C578.011 15.202 578.786 15.4307 579.393 15.888C580.009 16.3453 580.415 16.98 580.611 17.792H579.239C579.108 17.3253 578.851 16.9567 578.469 16.686C578.095 16.4153 577.629 16.28 577.069 16.28C576.341 16.28 575.753 16.532 575.305 17.036C574.857 17.5307 574.633 18.2353 574.633 19.15C574.633 20.074 574.857 20.788 575.305 21.292C575.753 21.796 576.341 22.048 577.069 22.048C577.629 22.048 578.095 21.9173 578.469 21.656C578.842 21.3947 579.099 21.0213 579.239 20.536H580.611C580.405 21.32 579.995 21.95 579.379 22.426C578.763 22.8927 577.993 23.126 577.069 23.126C576.341 23.126 575.692 22.9627 575.123 22.636C574.563 22.3093 574.124 21.8473 573.807 21.25C573.489 20.6527 573.331 19.9527 573.331 19.15ZM585.026 23.126C584.438 23.126 583.911 23.028 583.444 22.832C582.978 22.6267 582.609 22.3467 582.338 21.992C582.068 21.628 581.918 21.2127 581.89 20.746H583.206C583.244 21.1287 583.421 21.4413 583.738 21.684C584.065 21.9267 584.49 22.048 585.012 22.048C585.498 22.048 585.88 21.9407 586.16 21.726C586.44 21.5113 586.58 21.2407 586.58 20.914C586.58 20.578 586.431 20.3307 586.132 20.172C585.834 20.004 585.372 19.8407 584.746 19.682C584.177 19.5327 583.71 19.3833 583.346 19.234C582.992 19.0753 582.684 18.8467 582.422 18.548C582.17 18.24 582.044 17.8387 582.044 17.344C582.044 16.952 582.161 16.5927 582.394 16.266C582.628 15.9393 582.959 15.6827 583.388 15.496C583.818 15.3 584.308 15.202 584.858 15.202C585.708 15.202 586.394 15.4167 586.916 15.846C587.439 16.2753 587.719 16.8633 587.756 17.61H586.482C586.454 17.2087 586.291 16.8867 585.992 16.644C585.703 16.4013 585.311 16.28 584.816 16.28C584.359 16.28 583.995 16.378 583.724 16.574C583.454 16.77 583.318 17.0267 583.318 17.344C583.318 17.596 583.398 17.806 583.556 17.974C583.724 18.1327 583.93 18.2633 584.172 18.366C584.424 18.4593 584.77 18.5667 585.208 18.688C585.759 18.8373 586.207 18.9867 586.552 19.136C586.898 19.276 587.192 19.4907 587.434 19.78C587.686 20.0693 587.817 20.4473 587.826 20.914C587.826 21.334 587.71 21.712 587.476 22.048C587.243 22.384 586.912 22.65 586.482 22.846C586.062 23.0327 585.577 23.126 585.026 23.126Z" fill="#333333"/>
<rect x="464.5" y="0.5" width="150" height="35" rx="9.5" stroke="#9E9E9E"/>
<path d="M660.004 13.004C661.311 13.004 662.263 13.2607 662.86 13.774C663.457 14.2873 663.756 15.0107 663.756 15.944C663.756 16.4947 663.63 17.0127 663.378 17.498C663.135 17.974 662.72 18.3613 662.132 18.66C661.553 18.9587 660.765 19.108 659.766 19.108H658.618V23H657.358V13.004H660.004ZM659.892 14.082H658.618V18.03H659.626C660.578 18.03 661.287 17.876 661.754 17.568C662.221 17.26 662.454 16.7373 662.454 16C662.454 15.356 662.249 14.8753 661.838 14.558C661.427 14.2407 660.779 14.082 659.892 14.082ZM668.509 15.37C669.423 15.37 670.1 15.5707 670.539 15.972C670.977 16.3733 671.197 17.0127 671.197 17.89V23H670.301L670.063 21.936H670.007C669.68 22.3467 669.335 22.65 668.971 22.846C668.616 23.042 668.121 23.14 667.487 23.14C666.805 23.14 666.241 22.9627 665.793 22.608C665.345 22.244 665.121 21.6793 665.121 20.914C665.121 20.1673 665.415 19.5933 666.003 19.192C666.591 18.7813 667.496 18.5573 668.719 18.52L669.993 18.478V18.03C669.993 17.4047 669.857 16.9707 669.587 16.728C669.316 16.4853 668.933 16.364 668.439 16.364C668.047 16.364 667.673 16.4247 667.319 16.546C666.964 16.658 666.633 16.7887 666.325 16.938L665.947 16.014C666.273 15.8367 666.661 15.6873 667.109 15.566C667.557 15.4353 668.023 15.37 668.509 15.37ZM668.873 19.374C667.939 19.4113 667.291 19.5607 666.927 19.822C666.572 20.0833 666.395 20.452 666.395 20.928C666.395 21.348 666.521 21.656 666.773 21.852C667.034 22.048 667.365 22.146 667.767 22.146C668.401 22.146 668.929 21.9733 669.349 21.628C669.769 21.2733 669.979 20.732 669.979 20.004V19.332L668.873 19.374ZM675.488 15.356C676.347 15.356 677.028 15.5287 677.532 15.874C678.046 16.21 678.302 16.6953 678.302 17.33C678.302 17.7873 678.176 18.1513 677.924 18.422C677.672 18.6833 677.327 18.8747 676.888 18.996V19.052C677.187 19.136 677.462 19.2527 677.714 19.402C677.966 19.5513 678.167 19.7473 678.316 19.99C678.475 20.2327 678.554 20.5453 678.554 20.928C678.554 21.5533 678.293 22.0807 677.77 22.51C677.257 22.93 676.45 23.14 675.348 23.14C674.807 23.14 674.317 23.0933 673.878 23C673.44 22.916 673.076 22.7993 672.786 22.65V21.544C673.104 21.6933 673.477 21.8287 673.906 21.95C674.345 22.0713 674.821 22.132 675.334 22.132C675.894 22.132 676.366 22.0387 676.748 21.852C677.14 21.656 677.336 21.3247 677.336 20.858C677.336 20.018 676.622 19.598 675.194 19.598H674.186V18.59H674.998C675.642 18.59 676.156 18.506 676.538 18.338C676.93 18.1607 677.126 17.862 677.126 17.442C677.126 17.0873 676.977 16.8213 676.678 16.644C676.389 16.4667 675.969 16.378 675.418 16.378C675.008 16.378 674.644 16.42 674.326 16.504C674.018 16.5787 673.678 16.6953 673.304 16.854L672.87 15.874C673.654 15.5287 674.527 15.356 675.488 15.356ZM683.948 15.356C684.872 15.356 685.614 15.678 686.174 16.322C686.743 16.966 687.028 17.9367 687.028 19.234C687.028 20.5127 686.743 21.4833 686.174 22.146C685.614 22.8087 684.867 23.14 683.934 23.14C683.355 23.14 682.874 23.0327 682.492 22.818C682.118 22.594 681.824 22.3373 681.61 22.048H681.526C681.544 22.2067 681.563 22.4073 681.582 22.65C681.6 22.8927 681.61 23.1027 681.61 23.28V26.36H680.378V15.496H681.386L681.554 16.518H681.61C681.834 16.1913 682.128 15.916 682.492 15.692C682.856 15.468 683.341 15.356 683.948 15.356ZM683.724 16.392C682.958 16.392 682.417 16.6067 682.1 17.036C681.792 17.4653 681.628 18.1187 681.61 18.996V19.234C681.61 20.158 681.759 20.872 682.058 21.376C682.366 21.8707 682.93 22.118 683.752 22.118C684.209 22.118 684.582 21.992 684.872 21.74C685.17 21.488 685.39 21.1473 685.53 20.718C685.679 20.2793 685.754 19.78 685.754 19.22C685.754 18.3613 685.586 17.6753 685.25 17.162C684.923 16.6487 684.414 16.392 683.724 16.392ZM691.833 15.37C692.747 15.37 693.424 15.5707 693.863 15.972C694.301 16.3733 694.521 17.0127 694.521 17.89V23H693.625L693.387 21.936H693.331C693.004 22.3467 692.659 22.65 692.295 22.846C691.94 23.042 691.445 23.14 690.811 23.14C690.129 23.14 689.565 22.9627 689.117 22.608C688.669 22.244 688.445 21.6793 688.445 20.914C688.445 20.1673 688.739 19.5933 689.327 19.192C689.915 18.7813 690.82 18.5573 692.043 18.52L693.317 18.478V18.03C693.317 17.4047 693.181 16.9707 692.911 16.728C692.64 16.4853 692.257 16.364 691.763 16.364C691.371 16.364 690.997 16.4247 690.643 16.546C690.288 16.658 689.957 16.7887 689.649 16.938L689.271 16.014C689.597 15.8367 689.985 15.6873 690.433 15.566C690.881 15.4353 691.347 15.37 691.833 15.37ZM692.197 19.374C691.263 19.4113 690.615 19.5607 690.251 19.822C689.896 20.0833 689.719 20.452 689.719 20.928C689.719 21.348 689.845 21.656 690.097 21.852C690.358 22.048 690.689 22.146 691.091 22.146C691.725 22.146 692.253 21.9733 692.673 21.628C693.093 21.2733 693.303 20.732 693.303 20.004V19.332L692.197 19.374ZM696.446 18.492C696.446 16.8493 696.694 15.5707 697.188 14.656C697.683 13.732 698.481 13.1533 699.582 12.92C700.189 12.7893 700.782 12.6727 701.36 12.57C701.939 12.4673 702.48 12.374 702.984 12.29L703.194 13.368C702.868 13.4147 702.499 13.4753 702.088 13.55C701.678 13.6153 701.272 13.6853 700.87 13.76C700.469 13.8253 700.124 13.8907 699.834 13.956C699.228 14.0867 698.747 14.404 698.392 14.908C698.038 15.4027 697.837 16.1773 697.79 17.232H697.874C698.005 17.0547 698.182 16.8727 698.406 16.686C698.64 16.4993 698.915 16.3407 699.232 16.21C699.559 16.0793 699.928 16.014 700.338 16.014C701.309 16.014 702.042 16.3267 702.536 16.952C703.031 17.5773 703.278 18.3893 703.278 19.388C703.278 20.2187 703.134 20.914 702.844 21.474C702.555 22.034 702.154 22.454 701.64 22.734C701.127 23.0047 700.53 23.14 699.848 23.14C698.812 23.14 697.986 22.7433 697.37 21.95C696.754 21.1567 696.446 20.004 696.446 18.492ZM699.946 22.118C700.553 22.118 701.043 21.922 701.416 21.53C701.79 21.138 701.976 20.466 701.976 19.514C701.976 18.7487 701.832 18.1467 701.542 17.708C701.262 17.26 700.796 17.036 700.142 17.036C699.732 17.036 699.358 17.1293 699.022 17.316C698.686 17.4933 698.406 17.6987 698.182 17.932C697.958 18.1653 697.8 18.3613 697.706 18.52C697.706 18.9773 697.739 19.4207 697.804 19.85C697.87 20.2793 697.982 20.6667 698.14 21.012C698.308 21.348 698.537 21.6187 698.826 21.824C699.125 22.02 699.498 22.118 699.946 22.118ZM711.743 19.234C711.743 20.4753 711.426 21.4367 710.791 22.118C710.166 22.7993 709.317 23.14 708.243 23.14C707.581 23.14 706.988 22.9907 706.465 22.692C705.952 22.384 705.546 21.9407 705.247 21.362C704.949 20.774 704.799 20.0647 704.799 19.234C704.799 17.9927 705.112 17.036 705.737 16.364C706.363 15.692 707.212 15.356 708.285 15.356C708.967 15.356 709.564 15.51 710.077 15.818C710.6 16.1167 711.006 16.5553 711.295 17.134C711.594 17.7033 711.743 18.4033 711.743 19.234ZM706.073 19.234C706.073 20.1207 706.246 20.8253 706.591 21.348C706.946 21.8613 707.506 22.118 708.271 22.118C709.027 22.118 709.583 21.8613 709.937 21.348C710.292 20.8253 710.469 20.1207 710.469 19.234C710.469 18.3473 710.292 17.652 709.937 17.148C709.583 16.644 709.023 16.392 708.257 16.392C707.492 16.392 706.937 16.644 706.591 17.148C706.246 17.652 706.073 18.3473 706.073 19.234ZM718.739 16.532H716.289V23H715.071V16.532H712.649V15.496H718.739V16.532ZM724.655 15.496H725.999L722.793 19.108L726.265 23H724.837L721.449 19.192V23H720.217V15.496H721.449V19.136L724.655 15.496ZM730.47 15.37C731.384 15.37 732.061 15.5707 732.5 15.972C732.938 16.3733 733.158 17.0127 733.158 17.89V23H732.262L732.024 21.936H731.968C731.641 22.3467 731.296 22.65 730.932 22.846C730.577 23.042 730.082 23.14 729.448 23.14C728.766 23.14 728.202 22.9627 727.754 22.608C727.306 22.244 727.082 21.6793 727.082 20.914C727.082 20.1673 727.376 19.5933 727.964 19.192C728.552 18.7813 729.457 18.5573 730.68 18.52L731.954 18.478V18.03C731.954 17.4047 731.818 16.9707 731.548 16.728C731.277 16.4853 730.894 16.364 730.4 16.364C730.008 16.364 729.634 16.4247 729.28 16.546C728.925 16.658 728.594 16.7887 728.285 16.938L727.908 16.014C728.234 15.8367 728.622 15.6873 729.07 15.566C729.518 15.4353 729.984 15.37 730.47 15.37ZM730.834 19.374C729.9 19.4113 729.252 19.5607 728.888 19.822C728.533 20.0833 728.356 20.452 728.356 20.928C728.356 21.348 728.482 21.656 728.734 21.852C728.995 22.048 729.326 22.146 729.728 22.146C730.362 22.146 730.89 21.9733 731.31 21.628C731.73 21.2733 731.94 20.732 731.94 20.004V19.332L730.834 19.374Z" fill="#333333"/>
<rect x="630.5" y="0.5" width="130" height="35" rx="9.5" stroke="#9E9E9E"/>
</svg>
